<?xml version="1.0" encoding="UTF-8"?>
<!DOCTYPE svg PUBLIC "-//W3C//DTD SVG 1.1//EN" "http://www.w3.org/Graphics/SVG/1.1/DTD/svg11.dtd">
<!-- Creator: CorelDRAW X5 -->
<svg xmlns="http://www.w3.org/2000/svg" xml:space="preserve" width="6.42481in" height="9.66318in" style="shape-rendering:geometricPrecision; text-rendering:geometricPrecision; image-rendering:optimizeQuality; fill-rule:evenodd; clip-rule:evenodd"
viewBox="0 0 6744 10143"
 xmlns:xlink="http://www.w3.org/1999/xlink">
 <defs>
  <style type="text/css">
   <![CDATA[
    .fil0 {fill:black}
   ]]>
  </style>
 </defs>
 <g id="Layer_x0020_1">
  <metadata id="CorelCorpID_0Corel-Layer"/>
  <g id="_322432280">
   <g>
    <path class="fil0" d="M5298 1592c-27,-3 -61,-27 -59,-58 22,-15 90,-2 88,34 -1,1 -26,22 -29,24zm-128 -155c37,-1 -14,12 51,-3 11,17 11,47 1,65 -26,-5 -69,-31 -52,-63zm12 -486c-3,3 -3,-2 -2,-2 3,-3 4,0 2,2zm-412 -811c23,0 65,18 84,30 38,25 16,43 14,83 -4,95 49,94 91,161 21,33 26,48 64,65 35,16 53,21 62,60 9,35 45,48 8,61 -28,9 -63,25 -87,5 -38,-31 -97,-121 -125,-132 -49,-21 -42,-6 -76,-53 -81,-112 -92,-58 -152,-32 -34,15 -57,17 -68,60 -11,45 -6,162 18,205 21,38 34,47 78,49 39,2 58,0 95,-13 95,-34 82,28 169,66 144,62 114,402 57,288 -31,-62 -46,-136 -55,-205 -4,-36 -11,-67 -53,-71 -27,-3 -71,10 -89,30 -18,20 -26,71 -31,98 -12,66 -35,112 -49,207 -5,31 -1,76 -15,103 -8,16 -19,22 -29,35 -66,81 -24,156 16,237 17,34 35,47 72,54 105,17 95,-59 117,-120 22,-62 51,-138 116,-60 13,16 33,69 39,90 11,43 -19,48 7,99 26,50 20,39 70,59 28,11 62,23 87,39 42,28 43,112 124,131 128,30 116,-33 188,-29 41,2 106,98 124,132 40,78 -7,122 81,173 59,34 46,-2 73,10 10,4 12,51 57,17 61,-46 17,-139 27,-196 6,-35 17,-70 24,-105 13,-61 20,-38 53,-76 23,-26 12,-68 10,-102 -4,-58 -7,-47 -42,-82 -62,-61 33,-140 29,-182 -2,-30 -65,-149 -91,-162 -87,-42 -27,110 -77,153 -21,18 -73,18 -102,28 -57,18 -41,20 -107,22 -61,1 -165,9 -205,-46 -15,-21 -34,-63 -53,-76 -27,-18 -45,13 -82,-21 -96,-85 -29,-210 -18,-288 3,-25 11,-76 37,-87 44,-18 57,29 56,62 -1,43 -17,67 -6,113 12,50 65,135 125,126 32,-5 54,-31 75,-54 39,-42 21,-17 57,7 31,20 175,49 201,20 38,-41 3,-154 -20,-197 -67,-127 -95,-90 -144,-75 -47,14 -55,3 -73,-38 -19,-43 -20,-53 -10,-98 8,-37 -26,-48 -50,-67 -21,-17 -42,-42 -64,-55 -27,-16 -54,-26 -84,-44 -50,-31 -96,-82 -110,-140 -49,-208 -44,-154 69,-213 47,-25 35,-20 84,-9 32,7 72,0 93,24 20,22 32,48 64,59 32,11 56,-30 84,-2 26,27 10,123 47,192 65,124 82,227 168,156 47,-39 19,-1 53,9 19,6 62,-23 74,-37 18,-22 15,-80 51,-68 40,14 33,161 21,189 -7,15 -20,23 -28,36 -8,12 -12,31 -20,44 -22,39 -24,26 -47,81 -38,90 36,103 106,118 80,18 89,65 125,132 24,44 63,159 -12,173 -103,20 -99,56 -82,148 15,87 103,2 104,138 0,94 -61,79 -72,184 -3,33 5,80 -13,109 -21,34 -43,35 -34,88 13,70 94,80 145,114 24,16 55,32 80,48 60,38 118,47 155,103 50,77 32,180 -37,120 -43,-37 -28,-48 -50,-75 -13,-16 -53,-28 -77,-52 -29,-29 -44,-40 -83,-21 -38,19 -53,1 -93,29 -18,13 -67,38 -77,48 -44,44 -23,150 15,193 61,69 115,50 193,63 59,9 82,95 126,130 48,38 151,25 205,49 32,14 76,78 143,115 40,22 27,42 24,78 -4,48 -26,42 -63,32 -48,-12 -66,11 -94,3 -15,-5 -28,-16 -43,-20 -14,-4 -30,-1 -45,-6 -30,-11 -47,-46 -74,-53 -43,-13 -43,41 -58,56 -35,34 -115,-82 -138,-99 -22,-17 -59,-31 -85,-44 -93,-44 -21,117 -127,78 -57,-21 -17,31 -39,43 -49,26 -156,-93 -190,-121 -12,-10 -25,-17 -37,-27 -23,-20 -48,-38 -73,-56 -48,-35 -99,-92 -166,-83 -33,5 -57,28 -69,60 -27,74 81,198 105,266 10,27 9,73 -29,73 -30,0 -65,-26 -95,-33 -37,-9 -74,22 -96,-1 -22,-22 13,-164 -50,-180 -62,-16 -47,121 -150,44 -21,-16 -40,-50 -52,-73 -34,-64 -19,-43 4,-75 29,-41 -128,-94 -56,-147 28,-20 57,2 89,8 98,17 99,-27 148,-93 47,-63 54,-120 30,-196 -72,-230 -176,-101 -197,-115 -13,-9 -34,-63 -43,-80 -35,-68 -128,-89 -155,-27 -16,35 21,76 -19,80 -58,5 -22,34 -6,60 28,46 -40,15 -54,7 -31,-18 -48,-31 -77,-52 -96,-72 -150,-201 -213,-299 -22,-34 -93,-225 -106,-276 -10,-40 -17,-62 -30,-100 -27,-80 -29,-103 -79,-175 -10,-14 -52,-55 -68,-59 -40,-11 -57,6 -81,33 -32,36 -48,28 -90,22 -43,-6 -64,11 -58,55 1,11 9,99 -23,68 -23,-23 -28,-49 -64,-64 -32,-13 -71,-5 -99,14 -38,25 -39,38 -37,81 6,105 -68,138 -86,31 -5,-31 -18,-76 -11,-106 8,-29 22,-61 47,-79 34,-24 123,-94 161,-89 36,5 49,42 78,42 25,0 51,-34 69,-51 57,-56 47,-159 14,-190 -22,-21 -52,-33 -75,-54 -64,-56 11,-104 21,-119 147,-202 106,11 159,109 46,86 62,74 132,126 123,91 96,288 147,365 13,20 52,47 76,48 26,1 49,-45 53,-67 8,-42 -49,-147 -57,-194 -7,-44 25,-157 57,-189 63,-64 44,-106 2,-178 -16,-27 -31,-56 -47,-82 -44,-72 -123,-18 -116,-134 6,-103 -26,-221 56,-303 49,-49 38,-51 57,-72 21,-23 56,-24 85,-44 31,-21 34,-39 74,-55 30,-12 83,-10 116,-10zm-157 350c0,-28 4,-48 32,-58 32,-12 31,-15 57,-30 43,-23 72,34 92,63 35,50 84,35 109,70 21,31 49,76 78,100 47,40 72,30 127,13 27,-8 39,-19 44,-48 6,-39 -4,-36 -21,-61 -16,-24 -6,-34 -32,-58 -41,-38 -90,-45 -102,-71 -11,-24 -6,-39 -32,-56 -126,-87 -8,-105 -22,-158 -14,-52 -124,-91 -169,-91 -26,0 -42,7 -71,4 -50,-5 -85,13 -124,46 -24,20 -17,26 -52,35 -57,15 -58,45 -91,88 -34,44 -56,41 -71,107 -21,91 -16,119 -12,207 2,54 -10,113 45,147 47,29 46,-8 88,59 19,30 42,64 56,96 23,53 7,61 -24,99 -39,48 -68,177 -55,237 8,35 30,70 40,107 6,19 15,39 9,59 -22,77 -81,5 -92,-55 -7,-44 -18,-78 -27,-121 -56,-259 -221,-182 -246,-350 -3,-23 -16,-109 -23,-125 -16,-36 -50,-59 -88,-39 -33,17 -55,47 -76,75 -26,36 -51,36 -58,91 -13,107 102,104 119,169 10,39 -2,81 -28,111 -28,34 -46,52 -80,20 -60,-56 -144,21 -195,57 -41,29 -54,28 -74,77 -19,48 -18,70 -11,120 18,131 92,167 132,111 36,-49 14,-82 25,-127 8,-31 63,-49 90,-31 60,41 136,136 136,-17 0,-25 -10,-52 26,-49 31,3 46,9 78,-4 42,-17 62,-83 110,-36 72,70 92,157 120,251 14,48 35,93 47,140 26,94 69,171 118,252 20,34 47,86 72,114 29,34 55,69 83,103 25,29 75,57 107,78 38,24 125,44 93,-28 -16,-37 11,-18 23,-43 10,-21 -4,-55 0,-77 9,-44 67,-40 99,21 13,25 47,104 76,106 31,3 37,-23 56,-30 16,-6 51,5 62,17 20,21 48,102 48,131 0,63 -47,173 -106,201 -60,28 -78,-10 -119,-14 -40,-4 -70,39 -70,77 0,51 52,63 49,89 -6,52 -23,9 19,101 18,38 22,62 52,96 17,19 23,9 36,16 18,10 16,20 44,20 60,0 57,-31 86,-56 29,-24 25,80 25,89 0,64 28,106 97,86 37,-10 34,-17 72,0 23,10 49,23 74,25 67,4 57,-86 40,-127 -26,-61 -162,-213 -66,-264 46,-24 91,16 129,45 43,32 73,48 114,87 48,46 170,161 239,157 43,-3 29,-34 59,-41 31,-7 43,9 62,-31 9,-19 8,-61 28,-58 7,1 58,26 66,31 56,34 94,129 173,127 33,-1 25,-38 38,-55 17,-22 75,54 112,58 48,5 52,18 74,19 30,2 42,-21 74,-12 64,17 104,9 104,-66 0,-53 9,-83 -46,-110 -48,-24 -55,-35 -92,-71 -100,-96 -148,-36 -237,-82 -30,-15 -52,-64 -72,-90 -38,-50 -44,-53 -108,-50 -90,4 -178,-48 -178,-146 0,-52 13,-47 50,-64 28,-13 32,-32 68,-38 107,-17 54,-45 145,25 32,24 34,18 54,55 46,85 159,113 159,-21 0,-49 -42,-127 -83,-153 -29,-18 -49,-28 -80,-41 -54,-24 -100,-60 -151,-88 -20,-11 -60,-28 -75,-42 -57,-51 29,-82 29,-149 0,-49 -20,-85 17,-130 31,-38 49,-57 49,-110 0,-42 4,-108 -39,-131 -51,-27 -65,0 -61,-80 3,-60 30,-45 74,-61 35,-13 48,-57 48,-91 0,-56 -19,-98 -44,-146 -25,-49 -24,-76 -73,-113 -42,-32 -105,-24 -139,-46 -47,-31 46,-126 68,-171 39,-79 60,-117 28,-209 -12,-36 -48,-102 -96,-72 -37,23 -42,106 -77,78 -55,-44 -71,43 -108,39 -31,-4 -59,-82 -73,-108 -31,-59 -40,-73 -44,-141 -2,-40 4,-110 -43,-129 -23,-9 -53,-4 -77,-1 -30,3 -31,-8 -46,-30 -29,-41 -86,-21 -136,-42 -73,-31 -60,-1 -122,27 -63,28 -84,-3 -84,96 0,40 3,104 18,141 10,24 33,77 49,95 28,31 44,46 75,73 24,21 -17,53 11,96 16,25 15,21 14,51 -2,73 104,40 67,-38 -22,-46 3,-66 41,-29 33,32 51,37 51,86 0,32 25,93 40,123 26,54 57,39 104,22 50,-18 68,5 93,46 19,33 77,172 -5,164 -20,-2 -70,-6 -87,-12 -41,-15 -62,-98 -110,-50 -26,26 -57,97 -107,78 -40,-15 -71,-82 -71,-121 0,-56 28,-81 2,-143 -39,-97 -133,-35 -165,80 -13,48 -5,94 -11,144 -5,49 -5,97 24,140 22,31 51,76 92,74 50,-2 52,39 83,78 41,53 86,40 145,41 151,2 92,1 256,-35 27,-6 51,-20 66,-44 19,-33 11,-51 14,-85 6,-72 75,58 78,75 6,28 -45,74 -45,163 0,68 34,54 53,88 12,20 23,97 -4,107 -21,8 -26,0 -36,28 -6,17 -9,39 -12,56 -6,43 -17,67 -28,107 -9,31 0,82 2,117 3,63 0,54 -51,39 -40,-12 -78,-3 -89,-52 -24,-103 -35,-104 -92,-184 -22,-31 -30,-57 -68,-73 -81,-36 -109,58 -210,17 -29,-12 -61,-37 -74,-66 -32,-71 11,-35 30,-30 18,5 28,-7 46,-7 18,0 31,4 35,-20 5,-29 -16,-76 -40,-93 -44,-31 -67,-3 -75,-67 -7,-59 -22,-54 -68,-52 -46,2 -71,4 -56,65 10,38 46,47 61,74 5,8 13,38 15,48 10,38 -117,-28 -122,-32 -47,-45 19,-58 -55,-206 -10,-20 -50,-62 -71,-70 -33,-14 -61,30 -74,55 -43,82 -38,177 -98,170 -42,-5 -66,-19 -80,-59 -29,-80 -63,-125 13,-189 35,-30 28,-63 28,-105 0,-71 36,-153 49,-223 6,-29 10,-83 39,-99 90,-51 88,102 105,150 12,35 24,66 35,102 9,29 38,70 71,38 56,-53 24,-295 -52,-369 -34,-33 -64,-21 -96,-60 -30,-37 -55,-49 -104,-49 -66,0 -91,49 -144,16 -25,-16 -32,-31 -35,-60 -3,-32 -6,-68 -6,-100z"/>
    <path class="fil0" d="M1088 4871c-9,120 -63,-21 -134,25 -28,18 -4,72 4,96 10,29 16,67 26,99 80,248 94,165 145,223 39,45 94,72 145,101 31,18 56,16 81,44 18,21 59,35 50,70 -9,34 -57,7 -73,-5 -89,-65 -112,-13 -73,73 28,63 -12,43 -4,84 4,22 41,55 32,76 -24,10 -68,-55 -80,-73 -61,-85 -46,-106 -83,-163 -19,-29 -19,-23 -49,-34 -32,-11 -71,-67 -93,-65 -33,14 41,114 54,134 9,14 15,28 25,43 16,23 39,67 46,94 8,34 18,69 41,96 15,18 102,102 50,121 -14,5 -34,-9 -48,-14 -43,-14 -62,32 -55,67 7,34 33,68 32,102 -1,33 -22,73 -53,86 -197,83 -198,-11 -331,-8 -53,1 -60,18 -99,-29 -109,-132 -158,-30 -226,-183 -14,-30 -40,-55 -65,-76 -48,-40 -70,-10 -109,-20 -35,-10 -33,-69 -45,-95 -9,-19 -19,-22 -34,-34 -16,-13 -16,-28 -22,-46 -24,-75 51,-168 98,-132 32,24 16,65 55,82 34,15 65,-17 91,-35 40,-27 56,-24 94,5 117,94 24,119 65,197 34,64 102,78 163,113 80,46 120,-43 64,-124 -46,-67 -45,-22 -84,-45 -15,-26 26,-51 47,-60 29,-13 57,7 82,22 74,46 77,72 100,143 12,37 85,134 129,85 22,-24 39,-44 39,-78 0,-28 2,-81 0,-107 -10,-90 -57,-88 -96,-146 -39,-58 -36,-219 -135,-351 -17,-23 -59,-33 -85,-21 -45,22 -8,51 -27,74 -24,7 -46,-31 -78,-38 -46,-10 -49,35 -25,60 29,30 34,22 61,63 9,13 46,52 59,67 18,21 41,47 56,69 26,37 19,75 -9,44 -16,-18 -46,-50 -56,-69 -13,-27 -37,-44 -61,-61 -33,-23 -22,49 -59,-13 -15,-25 -26,-58 -39,-86 -15,-31 -18,-56 -58,-67 -36,-10 -55,25 -47,58 7,31 22,61 30,94 12,46 -2,80 -31,43 -34,-42 -42,-154 -95,-105 -17,15 -18,14 -37,2 -49,-32 -43,21 -88,-97 -29,-77 -9,-122 35,-184 29,-40 21,-53 39,-85 41,-74 125,-185 53,-264 -18,-20 -74,-36 -77,0 -2,17 15,30 4,41 -18,18 -15,0 -27,33 -9,27 -18,16 -38,15 -21,0 -21,16 -27,31 -32,81 -152,0 -171,-139 -5,-38 -24,-56 -21,-103 2,-32 23,-62 58,-57 87,13 101,39 198,9 29,-9 58,-25 76,-50 23,-32 40,-46 -3,-72 -40,-24 -46,-24 -90,-34 -84,-19 -7,-105 41,-136 34,-22 51,-18 84,4 36,24 35,34 84,41 43,6 63,9 75,-38 18,-70 30,-100 -82,-142 -47,-17 -60,-2 -62,-62 -1,-19 4,-31 2,-51 -8,-65 27,-71 -24,-140 -23,-31 -49,-27 -80,-13 -45,21 -38,-26 -78,-20 -41,6 4,78 -41,72 -24,-4 -56,-38 -62,-62 -12,-45 -4,-62 -2,-105 1,-18 -1,-36 0,-55 1,-17 5,-31 7,-48 5,-36 -6,-63 20,-97 30,-40 68,-118 112,-135 129,-50 46,-77 161,-88 102,-10 144,27 204,10 33,-9 158,22 189,42 23,16 48,40 73,52 43,20 40,16 59,63 12,30 12,81 24,101 7,12 53,44 69,57 52,44 132,16 179,-23 23,-19 36,-48 63,-63 30,-16 47,-44 82,-41 40,4 41,43 66,58 28,16 57,6 77,45 15,28 14,76 30,95 16,21 50,42 42,73 -5,21 -25,68 -46,78 -31,14 -68,-19 -92,-17 -18,1 -26,16 -40,22 -16,7 -31,-1 -46,7 -16,9 -11,25 -32,29 -17,4 -29,-2 -39,19 -15,32 6,61 32,78 74,49 130,118 178,194 17,27 36,43 51,74 37,79 48,71 46,196 -1,34 -45,49 -75,48 -37,-2 -98,-95 -119,-126 -59,-88 -43,-65 -121,-129 -61,-50 -90,69 -109,104 -87,152 -142,-79 -255,-133 -46,-22 -52,-16 -89,9 -21,14 -19,10 -32,33 -10,19 -15,6 -29,1 -42,-14 -47,45 -67,39 -19,-6 -53,-50 -74,-29 -20,20 -5,70 5,92 13,32 40,41 59,66 27,34 55,155 47,194 -8,37 -36,9 -24,84 7,40 42,152 94,147 48,-4 45,-36 55,-70 6,-20 38,-56 53,-71 29,-27 52,-14 84,1 60,27 93,83 88,149zm-772 707c-1,0 -41,-48 -43,-51 -37,-57 -70,-38 -120,-6 -25,16 -31,26 -39,55 -9,33 -3,125 18,153 17,23 29,7 44,54 9,28 11,42 27,68 14,23 47,22 71,21 36,-3 41,-3 70,20 22,17 60,89 77,116 30,49 77,47 123,67 51,22 67,63 102,91 38,31 99,2 155,19 43,13 115,37 158,31 48,-6 103,-22 145,-46 36,-21 67,-90 56,-131 -4,-15 -67,-136 -4,-110 18,7 55,24 73,13 21,-12 24,-49 17,-70 -12,-39 -57,-73 -82,-107 -17,-24 -17,-44 -24,-72 -13,-53 -96,-160 -93,-180 66,-17 80,87 100,127 23,45 64,100 103,133 19,16 62,36 76,3 7,-17 -20,-64 -30,-81 -23,-41 24,-34 7,-78 -8,-21 -33,-64 -23,-85 16,-14 46,44 121,42 95,-3 25,-127 -80,-165 -20,-7 -88,-45 -109,-58 -57,-35 -65,-67 -91,-80 -14,-7 -42,-20 -51,-32 -28,-40 -63,-137 -71,-181 -5,-27 -32,-114 -22,-133 31,-17 49,15 73,26 92,40 118,-228 -97,-277 -30,-7 -49,9 -67,30 -17,20 -35,37 -46,61 -17,37 -30,127 -82,1 -42,-100 -3,-71 7,-112 4,-16 3,-32 2,-48 -4,-36 -9,-55 -16,-90 -12,-55 7,-9 -23,-76 -14,-31 -102,-88 -71,-127 14,0 28,27 47,34 28,10 33,-15 45,-32 18,-26 27,7 54,-3 22,-8 25,-82 88,-69 54,11 102,76 130,120 18,28 55,80 92,77 114,-12 105,-195 166,-156 53,34 117,129 155,183 60,85 88,83 165,54 27,-11 32,-24 33,-53 1,-45 -7,-94 -22,-140 -16,-51 -25,-69 -59,-111 -55,-68 -72,-129 -148,-193 -16,-13 -83,-60 -78,-78 14,-5 24,11 36,-1 10,-10 7,-27 18,-40 18,-4 25,3 43,-8 16,-10 18,-18 40,-17 37,2 41,31 90,15 42,-14 82,-111 61,-150 -12,-22 -46,-49 -50,-64 -6,-18 1,-27 -9,-47 -10,-19 -9,-23 -15,-41 -13,-37 -39,-34 -70,-44 -35,-12 -36,-34 -59,-54 -19,-17 -67,-16 -91,-7 -1,0 -62,45 -66,48 -53,46 -50,79 -136,92 -39,6 -50,-7 -78,-28 -35,-27 -40,-21 -45,-70 -2,-22 -15,-69 -23,-90 -11,-27 -39,-37 -64,-50 -50,-26 -87,-62 -144,-83 -33,-12 -68,-8 -100,-14 -38,-7 -51,6 -95,-3 -49,-10 -55,-9 -104,-6 -142,9 -96,-1 -240,103 -26,19 -36,35 -51,63 -30,54 -68,87 -65,156 2,30 -10,68 -10,102 0,48 -4,154 34,185 22,18 44,41 74,39 45,-2 33,-43 51,-58 23,4 27,35 59,8 24,-20 38,-19 55,6 25,38 23,25 17,71 -2,17 3,25 3,41 0,13 -6,22 -6,37 1,88 5,79 82,104 64,21 87,26 62,95 -35,98 -110,-25 -178,-25 -33,0 -38,9 -62,26 -44,32 -66,51 -80,106 -6,26 3,52 29,61 31,10 37,18 71,20 64,5 50,52 -8,87 -126,75 -203,-62 -282,29 -35,41 -13,98 0,143 14,49 28,87 56,130 41,63 138,115 175,49 25,-45 23,-11 51,-24 25,-12 3,-35 41,-55 32,-17 9,-39 13,-55 22,-6 45,45 31,89 -15,48 -65,143 -91,181 -70,101 -93,184 -42,305 17,41 27,55 71,64 28,6 26,16 46,22 21,7 24,-9 40,-16 21,5 60,152 124,114 55,-32 -36,-166 -15,-201 38,-18 68,82 80,110 58,131 72,62 96,62 26,9 70,90 88,114 51,67 110,-18 65,-66 -51,-54 -88,-115 -134,-173 -14,-18 -51,-30 -44,-49 25,-11 43,41 76,33 55,-13 16,-47 33,-77 80,-49 134,176 146,223 12,44 18,111 47,146 64,78 92,28 85,204 -1,24 -12,49 -31,65 -39,34 -80,-51 -87,-80 -12,-51 -36,-85 -79,-115 -32,-22 -77,-71 -123,-59 -42,10 -107,45 -88,99 21,59 85,-4 115,75 8,21 11,56 -17,65 -12,4 -58,-13 -72,-18 -38,-15 -91,-43 -105,-83 -11,-33 -1,-50 6,-80 12,-58 -84,-130 -129,-150 -69,-29 -97,60 -130,43z"/>
    <path class="fil0" d="M5418 6220c28,0 70,66 11,86 -59,20 -27,-69 -11,-86zm38 -31c28,-11 53,2 82,-27 15,-15 9,-22 37,-21 57,2 10,73 51,105 25,20 63,6 92,7 12,9 7,15 20,22 96,52 105,-10 151,-3 21,3 36,24 36,44 0,26 -6,41 -16,64 -38,86 45,84 46,84 16,6 44,14 55,24 0,19 -6,14 -16,27 -9,11 -5,21 -7,35 -7,7 -27,16 -39,25 -44,33 -106,-1 -115,79 -2,19 -9,38 -8,57 2,28 17,12 47,82 8,18 21,18 29,32 -4,8 -74,48 -86,52 -25,-12 -17,-22 -46,-26 -28,-4 -29,8 -47,13 -16,4 -36,-11 -53,-13 -33,-5 -73,-63 -144,-8 -50,38 -81,-36 -81,-36 -48,-12 -20,-9 -47,-41 -24,-30 -152,-78 -191,-67 -14,4 -30,31 -50,36 -50,12 -24,13 -56,32 -45,26 -115,-38 -116,-38 -21,-2 -33,10 -46,4 -11,-5 -17,-19 -35,-15 -20,4 -7,15 -34,2 -13,-6 -29,-8 -44,-9 -45,-6 -38,2 -74,23 -30,17 -51,11 -79,-7 -27,-17 -24,-55 -12,-80 17,-36 13,-41 53,-46 48,-6 35,20 65,-33 11,-19 15,-7 33,-21 41,-32 50,9 60,19 12,14 18,9 32,17 25,14 37,32 22,60 -19,8 -24,0 -37,19 -3,51 72,58 108,51l18 -26c56,-13 20,-10 45,-35 17,-17 39,1 33,-42 -20,-23 -14,-26 -46,-37 -13,-5 -46,-18 -50,-32 -2,-6 37,-105 43,-113 28,-5 30,-4 57,0 13,2 39,-4 53,-8 22,-19 9,-33 11,-57 15,-11 44,-13 67,-28 47,-30 73,-75 94,-95 14,-13 45,-26 59,-7 -3,32 -32,42 -14,79 32,64 124,14 118,-42 -3,-29 -29,-67 -28,-78zm478 653c8,-42 -5,-37 -26,-59 -12,-13 -21,-39 -29,-55 -12,-23 -34,-9 -22,-50 7,-25 0,-46 29,-56 25,-9 49,-5 67,-16 39,-24 16,-13 54,-29 29,-12 7,-30 23,-52 63,-87 -108,-72 -105,-118 1,-11 44,-77 14,-130 -12,-22 -7,-42 -42,-41 -38,2 -84,47 -124,25 -26,-15 -24,-26 -42,-41 -14,-2 -24,5 -38,7 -69,12 -52,-44 -63,-88 -7,-28 -59,-31 -83,-25 -37,10 -20,43 -70,40 -45,-3 -51,0 -79,30 -102,6 -86,37 -149,91 -30,25 -30,38 -74,46 -21,4 -29,2 -42,19 -17,22 -1,26 -8,48 -58,19 -91,-33 -124,39 -11,23 -10,39 -22,61 -11,19 -21,42 -19,64 5,5 34,29 41,31 16,6 35,9 45,23 -5,10 -16,15 -23,24 -14,19 1,12 -24,21 -23,8 -28,40 -56,18 3,-15 14,-15 16,-41 5,-89 -51,-58 -71,-102 -10,-23 -6,-24 -34,-27 -26,-3 -23,4 -43,14 -14,7 -30,8 -41,16 -13,9 -14,22 -24,33 -39,7 -58,-3 -94,28 -15,13 -26,68 -29,89 -11,70 77,109 126,80 50,-30 32,-25 91,-12 15,3 36,3 55,6 16,3 29,14 41,14 19,0 30,-9 51,4 15,10 18,14 38,18 33,7 70,16 98,-9 24,-21 2,-15 40,-22 23,-4 22,-10 37,-23 27,-25 66,4 90,11 112,31 69,56 102,77 16,10 23,6 35,23 18,26 54,33 84,33 39,-1 41,-38 82,-32 20,3 21,15 33,27 15,15 25,6 45,12 23,7 21,12 50,6 17,-3 28,-7 45,-6 14,12 18,29 42,21 16,-6 28,-19 40,-24 18,-9 29,-3 48,-17 11,-8 32,-19 39,-26z"/>
    <path class="fil0" d="M5086 4800c-29,-16 0,-15 -51,-26 -22,-25 -16,-29 5,-50 34,-34 18,-14 33,-60 30,-2 27,4 53,-36 13,-19 19,-16 36,-27l-1 -37c41,-29 91,-4 116,-24 4,-29 -8,-51 -7,-70 1,-23 28,-35 46,-33 18,1 39,16 56,24 21,9 50,6 63,17 22,20 45,67 67,92 35,41 12,85 41,115 43,12 37,-9 81,25 31,24 44,10 76,4 33,15 37,38 74,43 32,4 52,-14 77,22 12,17 6,28 5,46 -1,22 14,21 19,36 5,13 -5,30 -7,45 -2,22 8,19 8,42 -16,22 -57,20 -67,65 -14,60 27,54 11,106 -8,25 -36,61 -55,78 -42,37 -111,13 -162,24 -65,13 -31,-40 -81,-46l-109 -23c-35,-9 -5,-23 -78,-56 -29,-13 -27,-2 -51,2 -30,-22 -30,-35 -72,-42 -55,-9 -40,25 -91,14 -7,-17 5,-32 13,-48 10,-22 19,-17 37,-23 14,-23 14,-47 37,-66 14,-1 39,6 47,5 13,-2 16,-17 30,-22l9 8 -8 24c14,28 72,52 101,53 22,-14 13,-34 43,-34 31,0 27,16 47,30 25,19 80,27 111,18 16,-18 8,-27 37,-39 20,-9 36,-4 57,-18 3,-13 12,-34 11,-45 -13,-13 -21,-6 -30,-26 5,-17 18,-34 11,-53 -8,-26 -3,-55 -72,-69 -105,-20 -18,-28 -78,-61 -20,-11 -27,-8 -48,-24 -17,-13 -40,-10 -60,-14 -33,-6 -65,-73 -144,15 -18,20 -36,4 -50,22 -9,13 2,11 -16,22 -12,7 -12,4 -18,15 -3,12 45,99 -46,61 -40,-17 -27,-9 -57,4zm761 340c16,-49 15,-37 -3,-82 -40,-96 99,-42 62,-141 -14,-37 37,-39 -4,-80 -16,-16 -2,-54 -29,-81 -24,-24 -44,-34 -79,-29 -41,6 -48,-28 -70,-38 -38,-16 -51,15 -87,-8 -37,-25 -65,-14 -83,-27 -7,-24 8,-35 -7,-65 -7,-14 -22,-28 -32,-44 -12,-19 -48,-87 -56,-95 -18,-5 -64,-8 -80,-15 -34,-16 -21,-23 -70,-20 -107,7 -64,78 -67,104 -18,13 -23,2 -41,5 -112,17 -75,59 -77,65 -7,11 -27,25 -38,35 -20,20 -28,-4 -46,26 5,60 -7,29 -29,66 -13,21 -45,32 -38,56 17,11 22,-5 34,16 10,17 9,19 26,33l21 -6c13,9 15,19 32,23 20,5 21,-5 34,-16 29,-3 52,12 92,5 31,-28 10,-46 14,-78 13,-9 14,-3 29,-9 11,-17 0,-20 22,-31 17,-8 20,-6 30,-24 16,-28 39,-39 66,-15 43,38 43,9 78,25 10,5 58,32 64,38 9,50 0,41 50,48 27,4 56,1 71,29 20,37 -3,36 -10,67 -5,27 36,21 29,56 -13,9 -26,5 -39,10 -5,2 -19,12 -29,17 -29,14 -20,35 -62,16 -45,-20 -51,-31 -61,-35 -17,-7 -62,-12 -78,-4l-11 24c-14,0 -44,-10 -54,-21 1,-7 26,-57 -40,-59 -25,-1 -21,10 -39,21l-50 -1c-11,9 -20,32 -29,47 -20,33 -39,9 -70,78 -9,21 -21,28 -5,52 25,38 96,0 111,-1 57,-3 43,54 91,55l19 -17c42,1 40,31 69,45 31,16 125,28 134,33 17,9 8,24 21,35 35,30 90,5 147,12 32,4 98,-8 121,-38 10,-13 41,-52 45,-65z"/>
    <path class="fil0" d="M3327 8888c-24,-9 -48,-40 -64,-60 -12,-15 -10,-22 -28,-32 -17,-10 -16,-20 -34,-28 -21,-10 -18,-13 -34,-26 -35,-29 -62,3 -62,-60 -1,-81 76,-66 103,-73 46,-12 49,10 86,-35 20,-24 40,-22 85,-36 42,-13 18,8 77,-45 23,-20 34,-44 61,-60 24,-14 76,-7 107,-14 22,-6 46,-43 59,-62 26,-36 54,-14 93,-29 33,-13 47,-32 72,-49 38,-26 74,8 94,-5 33,-21 15,-56 71,-42 28,7 73,0 95,27 -3,21 -12,24 -10,48 2,21 8,24 -11,40 -38,33 -141,19 -60,117 27,32 42,26 69,46 2,16 -1,35 4,49 4,12 13,22 18,34 -4,12 -13,20 -13,33 0,10 48,82 -6,101 -34,12 -30,30 -36,62 -5,29 -40,39 -59,24 -1,-18 12,-20 -8,-42 -19,-19 -44,-19 -76,-50 -40,-39 10,-16 -70,-55 -14,-7 -25,-16 -38,-23 -28,-16 -63,12 -82,31 -45,7 -134,-10 -148,50 16,49 74,38 69,87 -8,9 -23,23 -33,28 -106,44 2,30 -119,58 -40,9 -46,23 -89,-2 -13,-8 -27,-18 -42,-19 -26,-1 -22,7 -41,13zm706 -479c16,-25 77,-21 93,-57 10,-23 -3,-41 10,-66 10,-18 28,-25 9,-52 -11,-16 -31,-13 -53,-23 -24,-11 -45,-2 -69,-7 -24,-4 -25,-20 -57,-4 -28,14 -16,23 -35,41 -3,1 -79,-7 -108,17 -34,28 -28,41 -80,48 -48,7 -62,1 -91,42 -31,43 -25,46 -83,46 -28,0 -79,14 -97,36 -95,114 -52,60 -163,99 -42,15 -38,46 -82,46 -20,8 -7,14 -34,12 -48,-4 -63,-11 -111,41 -19,20 -16,46 -14,84 2,47 34,36 58,48 39,19 95,62 120,93 92,113 88,60 125,57 52,10 43,53 121,18 24,-11 43,-7 66,-14 32,-9 26,-14 45,-34 29,-30 68,-9 85,-78 13,-56 -60,-61 -66,-84 44,-32 103,-2 125,-12 18,-8 15,-26 42,-34 13,-4 69,26 89,59 18,30 80,47 85,68 4,20 -14,29 19,49 21,13 38,1 62,-4 24,-4 41,-2 50,-27 8,-23 -5,-48 17,-59 18,-9 32,-10 43,-32 19,-41 -15,-55 -2,-127 5,-27 -15,-32 -21,-52 -9,-29 15,-20 9,-55 -22,-32 -94,-6 -107,-81z"/>
    <path class="fil0" d="M2102 7625l-3 31c9,9 188,115 193,116 34,6 36,-40 77,21 15,22 23,14 36,29 0,20 -11,18 -10,53 3,79 92,77 87,106 -5,8 -10,10 -15,17 -16,22 8,49 -91,24 -19,-5 -24,3 -41,-4 -15,-5 -20,-12 -38,-10 -52,8 -35,-12 -70,-19 -22,-4 -53,14 -78,4 -10,-4 -18,-13 -28,-15 -15,-3 -28,2 -46,-4 -64,-21 -124,-127 -159,-125 -31,12 -5,11 -45,10 -24,-1 -24,14 -52,9 -14,-11 -20,-47 -30,-65 -18,-37 -18,-33 -54,-34 -26,-24 -31,-5 -49,-23 -3,-3 -28,-41 -30,-45 4,-34 17,-62 44,-83 27,-21 62,-2 89,10 71,31 56,-16 83,-28 17,-8 33,0 49,-16 12,-12 13,-30 20,-45 24,-16 34,-6 59,-2 7,1 18,4 25,4 32,4 -4,1 13,4 17,3 3,-18 35,30 5,7 27,44 30,50zm40 23c-6,-25 11,-23 -15,-49 -49,-48 -16,-84 -120,-93 -39,-3 -87,-16 -102,32 -9,28 -7,28 -39,34 -25,5 -26,8 -42,25 -20,2 -50,-12 -74,-16 -20,-3 -50,-4 -65,9 -29,24 -60,76 -66,113 7,24 27,46 41,66 14,19 20,9 37,16 17,7 8,13 34,15 58,4 14,116 111,95 25,-5 17,0 40,2 22,2 36,-7 45,-6 3,0 91,81 115,96 23,15 48,9 77,25 10,6 32,11 43,12 63,2 18,-22 86,11 18,9 31,2 47,1 16,0 11,14 31,19 22,6 21,-7 40,-2 138,34 111,-19 138,-52 52,-64 -68,-70 -76,-108 -4,-23 17,-56 13,-85 -27,-26 -40,-22 -64,-57 -33,-49 -50,-4 -86,-12 -29,-7 -94,-60 -113,-70 -15,-8 -23,-6 -38,-19z"/>
    <path class="fil0" d="M3037 3676c34,-12 68,4 103,-4 43,-9 14,-31 95,-20 48,7 58,-25 85,-35 27,-11 63,6 84,25 7,35 -11,59 9,86 21,29 32,24 51,48 35,42 126,41 148,49 5,19 -6,9 22,50 25,36 15,15 12,54 -2,26 10,33 -15,58 -24,24 -14,25 -12,59 4,51 -3,24 -25,50 -16,19 -6,46 -21,58 -12,10 -30,12 -49,30 -5,5 -16,13 -20,18 -8,10 -4,12 -17,22 -37,8 -52,-10 -72,38 -7,17 -3,22 -23,30 -32,13 -93,0 -123,-31 -32,-33 -40,-19 -75,-32 -21,-25 -4,-32 -49,-47 -33,-10 -32,-21 -40,-51 -9,-36 -51,-90 -89,-97 -39,-8 -103,-24 -127,-58 -25,-36 -1,-42 5,-63 7,-26 -7,-53 -9,-78 7,-15 42,-28 59,-35 33,-14 33,-22 39,-52 36,-36 28,-23 52,-70zm643 201c-27,-27 -20,-1 -33,-50 -8,-31 -22,-31 -52,-31 -53,0 -87,-3 -125,-43 -15,-16 -29,-30 -33,-52 -5,-28 15,-76 -26,-89 -21,-7 -11,-3 -29,-13 -20,-12 -48,-18 -71,-12 -41,10 -18,53 -121,38 -44,-6 -30,3 -56,20 -33,22 -97,-24 -123,20 -10,17 -16,41 -35,48 -41,17 -16,34 -31,53 -7,9 -42,26 -53,31 -71,32 -11,36 -36,115 -6,21 -12,47 4,64 57,64 14,27 71,54 8,4 18,12 26,15 40,17 81,10 107,60 30,58 -7,64 69,98 25,11 23,30 41,43 16,11 45,13 62,21 22,10 21,25 50,33 21,6 13,5 29,13 11,5 80,16 104,-4 28,-23 17,-37 31,-52 11,-11 47,-6 69,-14 12,-19 3,-16 22,-35 42,-43 59,-19 71,-43 10,-20 1,-24 0,-43l38 -30c1,-11 5,-29 3,-39 -14,-65 9,-33 19,-61 4,-10 1,-27 3,-39 5,-28 11,-49 4,-79z"/>
    <path class="fil0" d="M2291 2088c-24,-5 -45,-41 -62,-58 -31,-31 -54,6 -82,8 -21,1 -34,-41 -54,-61 -14,-14 -13,-24 -30,-30 -74,-28 -28,-23 -63,-59 -17,-18 -22,-15 -37,-27 -30,-23 1,-33 -63,-66 -9,-22 -9,-37 -3,-59 30,-14 57,2 58,-48 0,-17 7,-35 5,-44 -5,-23 -4,-20 -6,-44 -3,-54 -19,-140 -5,-191 20,-1 15,27 48,37 23,7 46,11 59,33 21,36 1,107 -14,143 -25,60 -10,90 31,133 19,20 42,20 66,26 40,10 26,20 50,36 42,4 24,-25 65,3 23,16 28,32 24,61 -31,50 -84,-38 -120,-22 -10,22 1,43 15,61 14,19 34,29 42,41 21,34 5,-4 39,45 23,33 28,18 46,37 3,15 1,35 -10,46zm97 -58c-8,-19 -5,-32 -32,-31 -27,32 -11,11 -27,27 -1,0 -41,-27 -42,-28 -10,-9 -19,-26 -30,-38 -36,-36 -69,-42 -66,-67 12,0 42,27 67,30 60,7 76,-70 31,-108 -21,-17 -28,-39 -53,-40 -11,0 -33,4 -41,-2 -10,-6 -11,-13 -27,-20 -24,-11 -44,-5 -74,-21 -62,-33 -17,-92 -10,-134 7,-38 17,-50 11,-82 -8,-43 -12,-78 -57,-89 -31,-8 -66,-54 -79,-60 -26,-12 -47,16 -42,45 4,26 1,66 1,93 0,39 13,171 3,183 -22,27 -74,-37 -55,101 7,47 30,31 47,45 11,9 13,39 38,53 40,22 19,12 41,50 11,18 11,22 50,40 67,31 52,81 94,90 28,6 53,-13 75,-16 31,18 53,73 95,75 25,-13 20,-43 28,-72 18,13 26,34 54,26 18,-22 8,-30 0,-50z"/>
    <path class="fil0" d="M5160 7816c62,-15 22,5 57,-37 15,-4 41,-2 53,10 -3,20 -15,18 -30,23 -8,3 -25,17 -33,23 -33,23 -30,37 -44,70 -29,17 -50,30 -74,4 -25,-26 -53,-2 -85,-13 -31,-10 -62,5 -91,9 -25,3 -56,28 -55,55 15,20 35,15 34,33 -29,19 -77,-7 -103,27 -7,32 11,22 12,45 -21,17 -47,5 -68,-8 -37,-22 -44,-7 -81,-13 -13,-17 -7,-29 -13,-48 -8,-22 -17,-19 -13,-45 22,-30 45,-5 65,13 36,33 38,17 68,-2 31,-20 45,0 77,-32 38,-38 26,-56 37,-74 36,-8 40,15 67,23 24,-5 16,-10 31,-24 23,-5 22,-1 46,-10 20,-7 24,-7 39,8 21,21 32,48 68,44 27,-19 14,-53 37,-81zm37 106c7,-23 0,-25 15,-50 8,-13 21,-25 35,-30 38,-14 63,-25 54,-72 -15,-16 -42,-23 -63,-22 -32,1 -40,6 -56,30 -20,7 -36,4 -49,27 -19,32 -18,46 -22,54 -18,0 -46,-50 -82,-48 -12,1 -16,5 -27,8 -14,4 -10,-1 -24,-4 -29,-5 -28,8 -40,23 -20,4 -71,-35 -97,-5 -12,14 -6,36 -14,54 -6,13 -21,26 -32,37 -16,2 -27,-1 -42,7 -11,5 -18,14 -32,13 -14,-1 -38,-29 -58,-33 -17,-3 -56,6 -65,24 -17,33 -13,38 4,67 8,15 10,55 19,72 12,22 50,3 75,9 48,12 92,44 138,3l2 -49c24,-16 122,0 92,-62 -9,-19 -20,-10 -28,-23 9,-15 20,2 39,-5 13,-5 7,-22 35,-17 18,3 14,14 42,10 15,-2 23,-12 38,-10 24,3 29,39 74,26 7,-2 65,-30 68,-34z"/>
    <path class="fil0" d="M2033 879c-22,0 -32,-31 -27,-50 7,-24 24,-27 30,-49 13,-46 -12,-86 38,-118 24,-16 30,-18 37,-47 5,-21 18,-34 24,-55 15,-46 -31,-90 16,-122 20,3 27,7 45,14 25,10 26,-6 46,-7 21,-2 63,17 72,37 -8,34 -49,21 -78,30 -30,9 -23,55 -31,79 -16,9 -23,4 -31,22 -29,62 -2,82 -9,120 -33,11 -48,-13 -84,33 -10,14 -11,33 -19,46 -8,13 -21,19 -30,31 -2,20 11,18 1,36zm200 -475c-77,27 -63,-22 -105,-14 -13,15 -28,51 -28,73 0,36 7,58 -9,91 -5,11 -13,23 -16,35 -5,21 -1,18 -20,32 -24,18 -33,31 -49,57 -25,41 7,31 -4,76 -7,28 -24,41 -30,75 -14,83 74,112 103,76 2,-32 -11,-27 12,-56 12,-15 18,-27 24,-45 14,-44 59,-13 91,-44 4,-24 -5,-58 -8,-82 -6,-41 26,-34 49,-49 5,-24 -3,-59 17,-77 28,-24 34,5 72,-19 24,-16 25,-40 21,-66 -5,-31 -34,-18 -50,-45 8,-26 26,-42 11,-71 -15,-5 -49,-9 -63,1 -23,17 -13,30 -17,52z"/>
    <path class="fil0" d="M3567 513c41,-8 61,14 102,-22 12,-47 -41,-79 -37,-106 15,-6 61,5 74,14 26,18 41,84 76,106 10,6 17,14 28,17 14,4 20,1 31,11 -2,13 -11,16 -16,32 -4,14 0,24 0,38 -15,26 -32,9 -51,28 -18,54 30,63 27,92 -30,7 -49,-38 -92,-32 -38,5 -22,17 -98,-15 -18,-8 -24,-12 -46,-19 -29,-10 -9,-17 -90,-39 -16,-4 -20,-24 -18,-38 31,-25 41,-2 73,-10 31,-8 18,-32 37,-56zm54 -49c-24,6 -61,-4 -81,6 -20,10 -16,42 -32,58 -38,-5 -46,9 -81,14 -16,22 -11,84 10,102 17,15 58,8 93,36 22,17 20,14 46,19 47,10 71,32 88,40 26,12 32,-2 50,-10 25,-3 164,101 134,-15 -7,-28 -24,-34 -31,-50 8,-17 38,-21 49,-56 5,-18 -5,-27 10,-44 11,-13 14,-17 6,-36 -4,-8 -15,-25 -21,-32 -17,-18 -21,-9 -40,-14 -41,-11 -25,-39 -100,-115 -16,-16 -58,-28 -80,-25 -29,4 -72,-2 -55,50 8,23 45,41 35,71z"/>
    <path class="fil0" d="M3208 471l-43 -15 -14 20c-53,8 -55,17 -113,16 -36,-1 -17,-9 -54,8 -18,8 -26,14 -47,17 -26,-22 -7,-43 -33,-72 -29,-32 -54,-13 -70,-36 -1,-28 17,-33 29,-57 4,-9 12,-14 17,-24 8,-15 5,-21 9,-36 17,0 14,7 44,2 59,-9 47,0 76,58 6,12 10,12 15,26 22,55 53,-12 63,-14 26,5 34,36 66,-9 10,-15 10,-21 28,-25 16,-4 27,-9 44,-6 34,29 -17,34 -16,62 1,23 14,68 -2,86zm-359 -218c-4,17 3,27 5,46 -20,40 -83,90 -48,134 19,24 58,18 73,29 8,6 20,52 31,71 18,31 41,18 69,10 17,-5 22,-14 34,-17 26,-7 38,16 88,2 8,-2 36,-13 39,-13 30,0 12,2 38,-7 19,-6 20,5 36,12 35,-11 40,-62 36,-92 -6,-54 38,-40 19,-99 -4,-13 -11,-33 -24,-40 -21,-12 -33,-6 -51,-2 -24,5 -28,-5 -48,9 -19,13 -16,24 -29,38 -35,-9 -19,-33 -71,11 -27,-28 -24,-86 -69,-91 -32,-4 -39,9 -68,0 -22,-7 -41,-18 -60,-1z"/>
    <path class="fil0" d="M3357 7472c29,-12 26,-6 39,-37 14,-36 8,-19 30,-43 12,-14 8,-44 11,-60 3,-15 20,-34 36,-31 15,34 -16,64 23,101 52,50 61,-32 91,10 -8,17 -19,3 -68,32 -28,17 -46,12 -41,57 4,7 36,36 44,38 26,7 37,-10 59,-10 35,21 14,51 -8,71 -18,3 -44,-1 -58,10 -21,16 -10,31 -27,48 -21,6 -44,7 -63,-7 -33,-23 18,-98 -46,-114 -35,-8 -31,18 -57,17 -10,-19 25,-59 36,-83zm162 -97c-18,-23 3,-37 -5,-66 -7,-25 -11,-43 -42,-44 -60,-2 -62,58 -71,99 -13,14 -19,6 -26,27 -5,16 -2,23 -13,37 -19,6 -18,-7 -34,7 -11,29 7,29 -19,61 -13,17 -28,33 -24,56 15,78 65,19 91,28 20,45 -29,87 56,114 14,4 64,1 76,-5 23,-12 19,-35 30,-53 27,-9 45,1 69,-22 13,-12 29,-45 27,-63 -3,-27 -18,-41 -42,-50 -41,-16 -28,4 -59,14l-19 -21c30,-36 90,-33 111,-62 7,-32 -7,-45 -35,-54 -41,-14 -43,1 -72,0z"/>
    <path class="fil0" d="M4259 1975c11,-24 10,-70 38,-80 31,12 16,31 34,54 55,71 78,55 84,87 16,90 32,56 46,82 4,8 7,21 12,30 6,10 36,26 48,36 16,13 19,36 33,54 12,15 36,23 45,37 -3,11 -26,34 -36,42 -17,14 -44,10 -64,5l-81 -36c-37,-18 -74,-6 -133,-64 -41,-40 -48,-43 -108,-34 -24,-17 -33,-90 -14,-117 10,-14 23,-27 34,-42 11,-16 10,-37 19,-52 23,-5 23,6 44,-2zm-136 144c0,17 20,83 32,96 20,21 67,-15 100,14 13,12 21,41 67,62 23,11 22,13 48,12 19,-1 115,46 136,49 66,10 64,9 91,-16 12,-11 23,-16 32,-32 8,-13 8,-40 -3,-51 -7,-8 -27,-20 -37,-27 -19,-12 -11,-19 -24,-38 -19,-29 -57,-35 -65,-65 -15,-56 -42,-14 -48,-76 -6,-61 -30,-42 -58,-71 -44,-45 -36,-37 -49,-77 -12,-35 -52,-51 -83,-32 -24,15 -14,77 -44,79 -63,3 -26,36 -55,69 -16,18 -15,11 -27,37 -14,30 -13,36 -13,67z"/>
    <path class="fil0" d="M3198 7875c13,-3 61,-31 69,-63 5,-19 -7,-39 23,-46 25,-6 30,0 45,15 12,12 31,19 28,39 -2,16 -23,17 -34,31 -9,12 -12,35 -20,45 -9,10 -13,3 -23,12 -5,5 -6,11 -12,18 -28,4 -40,-2 -63,-2 -27,0 -23,9 -38,24 -68,-8 -42,-29 -72,-43 -10,-4 -31,1 -46,1 -19,0 -19,11 -35,21 -18,1 -47,-7 -58,-23 15,-42 49,-4 82,-36 29,-28 61,10 70,-52l48 -15c10,27 -18,53 33,74zm-115 -122c-23,25 -11,47 -16,67l-34 4 -12 25c-25,5 -37,-4 -64,16 -15,11 -33,36 -29,54 10,8 9,3 18,9 22,12 -16,1 48,24 66,24 52,-2 70,-7 56,-2 23,22 77,34 95,21 59,-7 80,-22 18,-5 58,6 87,-1 10,-8 10,-13 19,-19 11,-7 12,-3 23,-15 6,-24 -6,-43 18,-58 18,-12 37,-8 36,-38 -2,-39 -31,-51 -44,-69 -7,-11 -3,-13 -14,-23 -19,-3 -84,10 -96,25 -12,16 -6,79 -39,76 -1,-19 24,-29 -9,-55 -24,-19 -46,-5 -70,-3 -20,-13 -14,-31 -47,-23z"/>
    <path class="fil0" d="M5474 7281c10,-9 14,-6 21,-12 8,-7 5,-13 12,-22 6,0 71,21 79,25 25,11 15,53 -8,65 -43,25 2,45 -30,69 -40,31 -32,14 -29,67 2,31 -23,42 -39,66 -17,26 -30,36 -61,43 -34,7 -45,-7 -83,11 -32,15 -31,45 -60,36 -25,-34 9,-45 24,-64 14,-18 25,-54 36,-63 42,-37 10,16 71,-77 8,-11 7,-20 16,-33 27,-10 36,-6 43,-41 6,-30 3,-43 6,-70zm15 -69c-8,7 -43,53 -46,63 -7,27 13,66 -21,78 -50,18 -12,74 -95,118 -27,14 -24,44 -41,65 -18,23 -39,28 -48,59 -9,31 7,63 41,63 59,0 34,-21 73,-33 54,-18 119,-2 153,-63 16,-29 36,-34 46,-60 15,-40 -17,-58 20,-79 46,-27 15,-38 40,-66 20,-22 26,-55 22,-85 -5,-33 -42,-31 -65,-42 -39,-18 -22,-29 -78,-18z"/>
    <path class="fil0" d="M491 3156c-18,1 -30,10 -46,14 -13,-5 -35,-19 -41,-31 9,-20 38,-28 0,-62 -19,-17 -48,-27 -38,-57 17,-3 47,7 66,10 29,5 40,9 60,-11 21,-3 55,-1 51,27 -24,15 -45,-6 -74,-1 -31,40 80,81 79,110 -25,9 -37,-2 -58,0zm-172 -168l-5 5 5 -5zm49 174c23,-2 55,32 76,42 22,11 27,-1 42,-12 18,-15 23,-7 46,-6 33,0 89,-11 42,-50 -14,-12 -58,-40 -62,-55 32,-8 78,10 64,-57 -18,-21 -74,-48 -100,-40 -17,5 -11,25 -51,21 -36,-4 -72,-20 -94,-48 -27,-34 -77,15 -48,52 17,21 21,17 43,25 13,21 6,16 27,34 10,8 24,16 26,29 -28,-8 -61,-29 -80,16 -9,20 -5,28 5,46 9,16 10,31 20,41 43,6 26,-19 44,-37z"/>
    <path class="fil0" d="M4209 8041c0,-26 -13,-43 20,-47 26,-3 33,-13 58,-7 63,16 50,34 96,-10 15,-2 63,20 73,31 0,37 -34,11 -52,48 -14,31 17,42 24,69 -16,34 -49,8 -81,37 -20,18 -29,6 -52,10 -20,4 -16,18 -29,28 -15,-4 -41,-21 -64,-27 -22,-6 -49,-4 -67,-20 -3,-25 6,-24 22,-40 13,-14 11,-26 17,-43 14,-9 27,-12 35,-29zm231 21c20,-17 31,-2 48,-35 33,-60 -39,-58 -67,-71 -25,-12 -33,-15 -59,2 -30,19 -14,20 -50,9 -28,-8 -30,-18 -61,-7 -27,9 -39,0 -64,16 -21,14 -18,36 -16,57 -10,11 -20,12 -29,28 -9,16 2,25 -12,41 -13,15 -47,37 -32,64 9,17 60,31 78,33 44,4 42,23 72,33 55,19 43,-24 76,-26 24,-2 24,6 42,-12 32,-31 84,-20 99,-61 11,-30 -31,-39 -25,-70z"/>
    <path class="fil0" d="M3045 7255c21,-3 36,14 58,-14 44,-57 47,-17 99,-1 34,10 23,24 43,41 67,19 56,-19 83,-14 11,12 12,25 9,41 -16,13 -15,5 -32,25 -14,8 -11,-11 -37,20 -58,-7 -54,-41 -87,-62 -29,-19 -25,-6 -48,3 -13,5 -16,-3 -27,3 -9,4 -7,10 -22,16 -23,-7 -46,-34 -39,-59zm-23 -31c-33,43 6,80 35,109 50,49 59,-7 117,-3 8,8 10,15 17,21 5,5 14,9 21,13 24,16 67,46 95,24 16,-13 17,-20 40,-28 29,-11 29,-6 29,-42 0,-35 -2,-26 -12,-56 -7,-23 -20,-26 -45,-29 -39,-4 -25,14 -48,20 -17,-12 -7,-17 -22,-28 -10,-8 -22,-11 -34,-16 -35,-16 -2,-23 -67,-28 -32,-2 -44,1 -64,28 -27,35 -31,8 -63,16z"/>
    <path class="fil0" d="M3028 7622c-23,5 -14,27 -37,27 -18,-19 -17,-62 -6,-86 27,-19 62,5 72,-33 -6,-18 -29,-37 0,-52 9,3 31,23 48,31 31,15 33,9 61,0 49,-17 85,40 47,67 -23,3 -22,-8 -40,5 -19,15 -15,6 -36,4 -65,-7 -48,32 -51,45 -21,6 -37,-12 -57,-8zm103 -6c25,-6 43,18 68,3 20,-12 6,-7 31,-14 47,-12 49,-98 -20,-122 -36,-12 -34,-8 -68,0 -34,8 -35,-7 -53,-26 -15,-16 -47,-13 -62,-1 -22,17 -19,37 -24,59 -12,20 -50,21 -58,41 -12,28 -10,50 0,79 40,115 83,25 101,22 19,2 46,11 62,9 28,-18 5,-25 23,-48z"/>
    <path class="fil0" d="M1126 2868c-21,-32 54,-83 57,-84 23,-6 30,15 51,21 26,7 40,-6 56,1 41,17 53,36 77,71 15,21 55,82 18,98 -35,-15 -22,-46 -34,-74 -13,-30 -50,-30 -76,-38 -18,-5 -21,-12 -36,-21 -15,-9 -27,-9 -44,-13 -56,-13 -35,43 -69,38zm117 -91c-38,-19 -75,-53 -111,-1 -23,33 -68,63 -35,109 13,18 45,19 61,8 17,-11 23,-59 72,-16 9,8 16,9 27,15 16,9 46,12 61,20 17,39 0,84 69,94 60,8 51,-66 33,-99 -68,-119 -84,-100 -116,-126 -22,-18 -39,-9 -61,-4z"/>
    <path class="fil0" d="M2613 7840c-15,24 -6,10 -13,37 -20,14 -48,22 -66,1 8,-30 54,-73 -23,-83 -31,-4 -21,-18 -35,-37 -19,-24 -4,-25 -23,-53 -11,-16 -7,-40 12,-47 26,-11 34,3 54,12 45,19 79,-33 108,9l-1 18c-34,18 -35,17 -30,64 3,27 16,52 18,80zm37 -7c-3,-36 -39,-77 -10,-109 33,-36 21,-66 -19,-85 -52,-24 -29,21 -115,-7 -25,-8 -97,0 -99,30 0,1 10,55 12,58 24,51 14,37 54,86 14,17 24,4 43,25 -2,35 -37,25 -26,68 42,39 90,15 109,14 19,-1 34,11 42,-23 4,-16 10,-42 9,-58z"/>
    <path class="fil0" d="M4452 2898c16,9 14,13 34,19 18,5 28,0 45,5 1,14 -9,32 11,50 14,12 41,4 34,33 -19,6 -40,-8 -62,-13 -36,-8 -53,-37 -90,-65 -19,-15 -22,-27 -48,-15l-8 22 -23 0c-19,-17 -31,-39 -30,-64 21,-18 49,-5 77,-15 10,9 14,21 23,28 12,10 25,8 38,16zm-173 -39c4,33 14,62 39,85 34,30 51,31 89,13 19,7 28,39 99,61 36,11 78,46 108,6 7,-53 -12,-40 -30,-68 9,-16 24,-22 4,-47 -30,-38 -78,-12 -108,-32 -26,-17 -14,-13 -44,-23 -33,-42 -20,-36 -78,-30 -34,3 -63,2 -79,36z"/>
    <path class="fil0" d="M1576 2572l-23 17c-11,-5 -16,-12 -18,-25 9,-13 31,-21 31,-40 0,-4 -16,-43 -19,-48 -12,-19 -56,-52 -63,-74l26 -26c12,6 33,33 45,45 39,36 25,15 59,18 25,42 -30,42 -24,88 13,19 52,47 47,71 -18,3 -34,-20 -62,-26zm-47 -70c-7,29 -47,12 -33,60 8,28 13,44 41,57 41,20 42,-13 68,0 16,7 47,38 64,4 11,-23 -2,-56 -18,-72 -33,-35 -25,-23 -5,-58 11,-19 -2,-58 -13,-76 -20,-35 -25,-32 -55,-15 -32,-14 -44,-66 -72,-71 -31,2 -26,16 -39,34l-31 6c-8,26 28,49 42,68 9,12 12,22 23,34 9,9 22,18 27,29z"/>
    <path class="fil0" d="M1585 3269c-46,-8 -51,-68 -23,-98 85,-91 112,-49 189,23 12,12 24,32 33,46 17,26 31,15 48,27l-1 9c-22,18 -71,-5 -93,-18 -25,-16 -47,-48 -62,-55 -17,0 -16,6 -31,5 -16,-1 -18,-4 -34,0 -10,19 -7,46 -26,59zm-80 -64c13,29 -13,33 29,67 18,14 44,29 67,28 8,-7 16,-16 23,-24 11,-13 7,-15 15,-26 4,0 39,2 43,4 11,6 21,19 31,26 14,10 69,30 86,33 4,1 64,23 71,-32 6,-46 -52,-51 -52,-51 -13,-16 -17,-25 -33,-39 -40,-36 -55,-74 -117,-92 -53,-15 -66,4 -102,31 -9,7 -27,26 -32,36 -5,9 -5,16 -11,23 -7,8 -9,6 -16,18z"/>
    <path class="fil0" d="M4773 2841c-9,-12 -17,-3 -27,-3 -3,-27 44,-5 71,-35 34,-37 11,-56 14,-82 21,-1 42,7 51,26 13,30 37,14 43,38 -17,12 -32,4 -33,35 -1,23 11,23 21,42 -7,26 -2,41 -8,61 -23,-3 -21,-39 -39,-50 -17,-10 -58,3 -79,3 -10,-14 -6,-27 -14,-36zm13 74c27,1 20,-15 64,-10 16,16 17,31 40,46 19,13 48,5 49,-17 1,-16 -8,-15 6,-34 7,-10 15,-12 14,-26 -2,-20 -30,-26 -30,-49l27 -9c6,-18 0,-31 -5,-48 -6,-25 -13,-20 -33,-27 -15,-5 -16,-20 -28,-32 -18,-18 -19,-12 -41,-19 -17,-5 -24,-21 -39,-12 -14,8 -20,28 -17,44 3,20 19,17 9,39 -19,42 -32,29 -57,22 -32,20 -41,52 -36,89 15,19 21,13 40,8 11,17 9,34 38,36z"/>
    <path class="fil0" d="M2537 7431c-3,50 36,36 45,59 -15,10 -72,20 -70,-24 1,-28 -1,-20 -4,-42 29,-51 -5,-26 -4,-65 16,-13 38,-10 38,-39 0,-22 -20,-37 -4,-69 17,-7 38,0 49,13 0,13 -5,24 -6,44 0,33 -10,19 -17,36 -4,10 -1,38 -2,51 -2,23 -13,15 -24,35zm-68 7c10,19 5,8 4,27 -1,14 40,79 69,72 10,-2 50,-11 58,-14 18,-8 32,-28 21,-47 -9,-15 -30,-18 -40,-31 6,-26 22,-7 14,-49 -7,-38 5,-25 15,-44 7,-13 -1,-38 4,-56 5,-17 26,-27 13,-45 -11,-15 -86,-34 -107,-27 -37,14 -12,90 -12,95 -17,15 -37,2 -42,34 -3,18 3,17 6,30 5,26 -23,19 -3,56z"/>
    <path class="fil0" d="M2844 9423c-22,18 -21,3 -33,36 -34,16 -39,-2 -47,42 -9,-14 -7,-43 -23,-59 -17,-17 -54,-2 -50,-39 14,-7 15,-1 29,-5 10,-3 12,-8 23,-11 50,14 20,8 54,-7 11,7 7,18 22,18 14,0 11,-10 28,-10l-2 35zm-46 76c12,-8 21,-7 32,-14 14,-8 12,-16 20,-26 9,-11 18,-6 26,-20 8,-14 2,-24 6,-37 5,-15 16,-5 17,-28 3,-39 -40,-26 -57,-34 -15,-7 -22,-15 -62,10 -22,13 -9,3 -33,4 -1,0 -73,14 -74,14 -21,9 -24,53 -13,69 15,23 35,20 58,30 20,48 -34,64 14,89 15,1 39,-3 50,-14 15,-16 10,-26 16,-45z"/>
    <path class="fil0" d="M5083 5487c-18,1 -32,-19 -22,-36 8,4 23,28 22,36zm-27 -118c5,-9 28,-39 39,-43 3,12 -4,12 1,28 4,14 9,11 6,27l-27 19c-11,-6 -17,-19 -18,-31zm78 -18c10,-16 39,-38 11,-63 -52,-45 -91,36 -106,52 -22,23 -24,31 -10,60 17,39 -43,101 43,119 65,14 103,-51 95,-72 -22,-5 -27,37 -60,3 -8,-42 41,-36 28,-100z"/>
    <path class="fil0" d="M982 2912c-19,0 -24,-7 -50,-3 -26,22 -21,68 -54,81 -21,-11 -39,-36 -31,-61 15,-5 35,5 49,-12 8,-10 9,-33 22,-49 13,-3 20,-1 32,-2 19,-1 13,-5 26,-9 14,11 18,41 7,54zm-27 31c29,-5 33,15 54,-3 31,-27 10,-88 -6,-112 -15,-21 -22,-24 -49,-20l-16 23c-22,2 -29,-7 -49,14 -14,15 -16,33 -27,44 -35,2 -61,-8 -56,47 2,26 22,52 43,68 28,22 36,38 68,5 21,-21 25,-55 39,-68z"/>
    <path class="fil0" d="M1634 2163c10,10 11,14 7,27 -10,0 -29,-14 -36,-24l28 -4zm-56 20c-12,4 -35,-9 -46,-16 0,-39 8,-22 32,-8 13,8 19,9 13,23zm-6 -61c-88,-50 -55,16 -98,41 -31,18 -9,43 0,65 11,26 13,42 46,42 32,-22 17,-37 28,-57 17,3 14,12 37,17 19,-8 14,-13 27,-22 27,8 18,26 63,17 18,-21 4,-25 -3,-44 -9,-27 1,-19 -20,-45 -32,-41 -38,-25 -81,-14z"/>
    <path class="fil0" d="M1071 6259c7,-17 8,-11 22,-12 11,-1 16,-6 23,-4l-11 36c-13,3 -30,-7 -35,-20zm108 2c11,-35 -7,-15 18,-50 12,-17 10,-22 32,-33 44,-20 15,-38 7,-58 -5,-13 -1,-12 -13,-15 -17,12 1,15 -23,26 -12,5 -19,7 -29,16 -19,17 -31,28 -46,49 -16,21 -44,17 -66,29 -7,4 -57,32 -60,35 -3,20 1,38 20,47 23,11 29,-1 48,-6 18,5 35,27 53,25 24,-3 19,-34 27,-51 15,-8 18,-1 33,-14z"/>
    <path class="fil0" d="M2532 5273c15,4 17,14 12,28 -22,6 -29,-16 -12,-28zm-109 -81c22,16 30,-5 52,1 1,12 -3,17 -14,23 0,0 -54,0 -73,-34l5 -26c21,2 14,26 29,37zm-134 -14c3,32 40,31 65,34 26,3 20,-3 35,18 8,11 18,17 32,15 45,-5 -11,-13 70,14 1,17 2,31 14,45 6,7 23,25 31,29 20,-1 27,-7 37,-23 3,-26 -17,-65 -44,-68 -16,8 -11,12 -31,13 -19,-28 1,-30 13,-48 2,-18 -6,-33 -22,-43 -25,-17 -26,-1 -47,-2 -3,-4 -46,-86 -87,-19 -22,6 -70,-5 -66,35z"/>
    <path class="fil0" d="M5462 1502c15,-4 59,3 75,8 47,13 35,-19 55,-26 6,17 2,41 -5,57 -18,-1 -19,-12 -45,-8 -23,3 -25,11 -51,4 -4,-4 -29,-34 -29,-35zm86 -27c-27,1 -24,-8 -39,-12 -16,-5 -25,-2 -47,-10 -54,-21 -45,25 -40,61 3,22 12,20 20,36 7,14 6,26 23,32 12,5 25,-7 45,-4 34,5 20,-2 46,-4 14,7 17,15 36,17 28,-18 18,-21 26,-50 6,-23 53,-96 -21,-98 -32,-1 -30,18 -50,32z"/>
    <path class="fil0" d="M4567 2704c4,-10 15,-75 73,-40 18,11 35,-4 55,1 15,3 27,23 25,38l-30 4 -12 32c-33,9 -32,-14 -61,-11 -21,16 -7,17 -39,17 -18,0 -33,6 -52,1l-5 -29 47 -14zm-78 -5c-1,4 7,49 9,56 11,44 25,22 95,23 41,0 19,-1 42,-16 22,-5 60,58 82,-26 15,-5 28,-6 40,-17 3,-11 -6,-48 -13,-57 -4,-5 -36,-29 -41,-31 -27,-9 -36,15 -62,1 -32,-17 -21,-10 -54,-4 -12,-11 -13,-17 -31,-10 -7,18 -1,42 -12,65 -23,12 -33,-3 -53,1l-2 14z"/>
    <path class="fil0" d="M1531 1965c8,-11 22,-18 31,-30 11,-14 11,-28 22,-39 25,-5 43,0 40,29 -16,12 -25,3 -42,23 -8,9 -19,34 -18,46 2,50 48,41 57,67 -28,17 -91,-66 -89,-96zm70 36c6,-46 64,-24 62,-79 -2,-32 -51,-63 -80,-61 -23,17 -32,50 -60,62 -19,8 -28,7 -27,32 2,43 34,78 67,115 15,17 59,46 83,32 18,-21 16,-40 -1,-61 -33,-40 -31,-23 -44,-41z"/>
    <path class="fil0" d="M2814 7225c20,-4 20,6 33,10 19,5 14,-10 34,-7 4,11 14,44 11,53 -20,7 -47,2 -65,15 -22,16 -17,36 -31,52 -30,7 -42,-37 -30,-53 6,-8 29,-12 57,-39 -6,-18 -20,-7 -10,-30zm120 86c5,-21 2,-41 -7,-60 -12,-23 9,-35 -12,-52 -18,-14 -41,-6 -59,-1 -22,6 -34,-7 -61,0 -20,21 -13,35 -16,57 -19,15 -42,12 -49,41 -5,24 5,49 23,65 65,61 74,-12 98,-31 25,-2 15,14 49,7 8,-7 7,-11 15,-15 9,-6 8,-1 19,-11z"/>
    <path class="fil0" d="M1989 1062c0,-23 3,-67 37,-56 7,16 -5,29 -14,42 -18,26 -1,23 -8,45 -18,12 -19,-4 -40,2 -13,17 2,20 -5,46l-17 0c-20,-55 34,-63 46,-80zm10 78c20,-3 51,-9 48,-39 -5,-57 28,-30 21,-71 -5,-34 -3,-43 -37,-61 -34,-19 -44,-11 -66,17 -22,28 6,37 -28,71 -25,25 -34,21 -38,66 -2,23 23,48 43,56 38,15 47,-12 55,-39z"/>
    <path class="fil0" d="M2965 5885c8,15 -1,32 -17,36 -12,-11 -9,-18 -8,-34l25 -2zm98 36c-20,4 -47,-35 -17,-41 9,7 16,29 17,41zm29 -29c5,-19 25,-15 20,-55 -18,-23 -38,-28 -58,-5 -15,17 -18,5 -35,14 -13,7 -9,15 -22,25 -21,-3 -25,-19 -45,-17 -52,6 -49,93 -18,105 50,7 42,-31 71,-39 26,9 15,27 56,33 25,4 53,12 78,4 21,-46 -34,-42 -46,-66z"/>
    <path class="fil0" d="M1083 6558c4,-13 11,-17 24,-17 12,8 15,22 18,37l-13 4 -30 -25zm-64 20c28,29 15,0 65,36 20,15 46,-13 54,47 5,36 9,57 54,49 38,-7 30,-35 18,-59 -30,-62 -3,-36 -10,-76 -6,-33 -32,-17 -56,-47 -19,-25 -51,-11 -73,1 -25,14 -51,16 -51,49z"/>
    <path class="fil0" d="M1988 3169c-1,-11 1,-22 0,-33 -1,-12 -5,-20 -5,-28 11,1 45,40 22,66l-18 -5zm-68 -119c10,-17 20,-24 40,-22 20,22 16,43 19,70 -8,-3 -12,-13 -22,-18 -30,-15 -30,4 -37,-30zm105 157c19,-11 22,-35 22,-56 1,-16 -16,-36 -26,-48 -27,-33 -2,-23 -14,-54 -41,-104 -120,-40 -122,-11 -5,67 67,59 64,87l-27 2c-20,23 -8,53 15,68 15,10 30,5 48,6 16,1 25,6 41,6z"/>
    <path class="fil0" d="M4426 914l25 28 -26 23c-23,0 -41,-17 -38,-43l39 -8zm-88 -39c16,-5 22,2 18,19l-21 -1 3 -17zm-24 -37c-8,12 -17,45 -17,60 1,27 15,35 38,38 33,4 37,70 87,70 27,0 96,-30 70,-72 -10,-16 -22,-29 -33,-42 -23,-28 -27,-15 -58,-22 -9,-9 -16,-30 -29,-36 -9,-4 -48,1 -58,4z"/>
    <path class="fil0" d="M3139 1869c15,-20 19,-8 39,-13 17,-4 34,-63 66,27 5,15 2,19 15,30 10,9 16,9 20,23l-8 11c-24,-14 -20,-44 -46,-57 -29,-16 -57,-11 -86,-21zm19 -44c-20,5 -21,-3 -37,13 -9,9 -20,17 -19,31 1,11 30,57 40,61 28,10 35,-33 74,1 8,7 39,50 45,53 25,13 53,-16 54,-39 2,-24 -30,-43 -37,-63 -9,-23 1,-12 -16,-32 -8,-10 -48,-70 -82,-58 -15,10 -14,19 -22,34z"/>
    <path class="fil0" d="M2735 2116l-37 -3 -25 31c-35,-2 -17,-33 -24,-56 -6,-20 -33,-37 -13,-57 27,5 1,50 46,60 73,17 56,-18 86,-1 -3,9 -22,18 -33,26zm-130 -104c-12,22 -10,42 0,65 6,13 11,13 13,28 1,14 -3,25 4,38 7,14 34,30 48,35 33,11 37,-13 49,-29 27,0 21,16 53,-11 16,-13 31,-18 34,-45 6,-60 -89,-24 -119,-30 -17,-24 -6,-55 -39,-68l-43 17z"/>
    <path class="fil0" d="M2992 9044c13,-10 9,-15 25,-10 3,10 -5,34 -12,42 -8,11 -8,1 -39,22 -12,-4 -16,-7 -30,-9 -91,-7 -43,-3 -79,10l-8 -8c0,-15 17,-44 31,-49 16,7 8,16 30,21 17,-6 12,-13 35,-17 15,-3 32,-1 47,-2zm-119 -35c-15,10 -36,42 -47,59 -17,25 -6,57 22,67 26,10 43,-19 81,-16 23,2 44,43 67,2 12,-21 18,-7 33,-20 12,-11 11,-26 17,-36 6,-12 22,-13 14,-35 -4,-10 -18,-18 -27,-22 -63,-26 -49,6 -70,12 -35,9 -65,-10 -89,-9z"/>
    <path class="fil0" d="M4023 6530c-13,-37 11,-63 47,-67 19,-2 28,3 42,-15 11,-13 10,-28 28,-24 7,28 -14,26 -29,42 -8,31 12,43 -1,60 -29,5 -13,-25 -46,-19 -15,3 -28,21 -41,22zm127 -50c16,-27 36,-26 23,-74 -17,-12 -46,-16 -66,-7 -25,11 -8,38 -45,42 -65,7 -83,31 -75,98 7,10 22,20 34,23 18,3 24,-9 37,-16 34,9 17,40 68,7 37,-24 23,-34 23,-72z"/>
    <path class="fil0" d="M2742 7539c25,-10 19,10 40,14 28,6 35,-43 54,-8l-14 15 2 27c-31,13 -55,28 -62,31 -15,-17 -24,-58 -20,-80zm115 77c5,-11 6,-19 11,-30 7,-12 9,-9 15,-23 -3,-11 -32,-58 -40,-66 -26,-24 -42,6 -66,16 -32,-10 -65,-12 -67,31 -1,20 -7,29 -10,48 -3,20 8,19 17,31 18,24 21,53 64,28 27,-16 55,-22 76,-35z"/>
    <path class="fil0" d="M5364 3183c49,-36 66,-25 96,-9 17,9 19,-3 33,13 -2,15 -6,9 -10,20 -4,9 1,13 -1,26 -10,8 -21,9 -28,17 -9,10 -2,15 -16,25 -16,-4 -25,-24 -55,-36l0 -18c-16,-13 -25,-9 -19,-38zm-37 -11c-7,28 9,28 16,51 5,19 7,31 22,46 56,10 27,19 56,40 23,4 39,-3 53,-20 23,-30 23,-12 43,-29 2,-17 -3,-28 7,-42 29,-38 -30,-72 -52,-76 -68,-14 -74,-28 -144,31z"/>
    <path class="fil0" d="M6235 7249c-1,-12 -5,-11 -6,-21 9,-5 11,-12 23,3 18,21 -1,25 5,48 4,15 6,13 0,27 -35,10 -23,-57 -23,-57zm-47 -45c13,-7 24,-4 21,11 -12,0 -12,-4 -21,-11zm9 49c4,30 -6,27 11,60 26,48 72,27 84,8 11,-19 7,-77 -8,-107 -14,-28 -16,-19 -39,-29 -29,-12 -60,-50 -96,-14 -13,59 45,77 48,82z"/>
    <path class="fil0" d="M1848 2776c15,6 15,13 26,22 19,15 47,4 37,36 -4,0 -41,-17 -48,-21 -32,-16 -27,-5 -48,3 -6,-10 -5,-7 -2,-20l22 -4 13 -16zm-10 -45c-123,69 -23,147 9,137l7 -22c24,-1 51,33 82,24 21,-22 10,-57 2,-83 -12,-39 -26,-35 -59,-33 -18,-12 -16,-23 -42,-24z"/>
    <path class="fil0" d="M462 1534c4,-30 35,-24 50,-27 18,-4 15,-12 38,-8 12,2 24,6 27,17 -16,11 -24,0 -45,9 -27,11 -11,1 -37,1 -16,7 -16,21 -33,9zm6 -65c-16,6 -7,9 -20,17 -11,7 -17,2 -23,18 -10,24 -4,40 11,59 22,28 30,14 53,5 26,-10 35,23 60,-1 28,-26 35,-4 54,-25 39,-43 -32,-77 -69,-81 -13,-1 -20,3 -32,7 -18,6 -17,1 -34,0z"/>
    <path class="fil0" d="M1536 6686c-1,-14 1,-11 12,-17 8,12 2,19 -12,17zm-99 -108c-2,38 47,30 67,35 8,63 -6,42 -7,71 -2,29 13,42 40,48 26,-13 58,-49 56,-81l-16 -14c0,-17 8,-37 -8,-49 -18,-13 -26,-2 -46,0l-19 -41c-24,-8 -65,0 -66,30z"/>
    <path class="fil0" d="M5387 4801c22,-8 50,4 67,-8 7,-19 -6,-17 10,-27l10 5c2,16 -7,16 -4,31 3,11 10,10 16,20l-8 14c-31,8 -26,-7 -47,-7 -11,0 -34,2 -44,-2 -5,-13 -5,-12 -1,-26zm124 -13c7,-31 -8,-41 -37,-47 -37,-7 -46,-6 -54,29 -27,8 -56,-25 -67,20 -6,25 -4,61 18,77 26,4 46,-11 58,-8 24,6 15,23 53,7 19,-8 32,-8 44,-28 13,-21 0,-35 -14,-49z"/>
    <path class="fil0" d="M577 2760c-7,-21 -7,-126 32,-107 1,11 -19,30 -22,47 -2,15 -1,49 -10,60zm44 10c-9,-90 42,-78 23,-118 -19,-41 -65,-53 -89,-10 -8,15 -50,163 27,162 19,0 45,-2 52,-22l-13 -12z"/>
    <path class="fil0" d="M6048 7015c-12,2 -14,2 -21,-9 8,-10 13,-9 23,-4l-3 12zm-13 38c25,9 53,39 82,14 36,-32 -16,-55 -24,-74 -18,-41 -49,-28 -87,-21 -18,3 -32,-1 -44,16 -13,18 -5,24 -1,42l-9 18c13,9 7,-1 21,6 49,24 27,11 62,1z"/>
    <path class="fil0" d="M5067 129c-36,15 -40,31 -29,70 7,26 16,68 50,61 26,-25 -8,-29 35,-52 19,-10 11,-16 14,-33 3,-16 10,-6 11,-35 1,-27 -3,-55 -36,-56 -36,0 -34,18 -45,44z"/>
    <path class="fil0" d="M6071 7768c26,-2 19,6 45,-11 17,27 -22,59 -26,64 -7,10 -4,12 -13,21 -29,-4 -23,-57 -6,-74zm113 -51c-28,-19 -42,1 -67,4 -24,2 -37,7 -58,20 -32,20 -44,82 -23,116 11,19 48,21 63,11 5,-3 28,-40 32,-47 12,-20 12,-31 28,-51 14,-18 32,-26 24,-52z"/>
    <path class="fil0" d="M2507 299c7,-14 4,-17 19,-15l1 12 -20 3zm61 -28c-8,13 -19,11 -27,-3l27 3zm-58 -39c-80,55 -54,151 47,96 26,-14 74,-4 51,-67 -11,-30 -77,-43 -98,-30z"/>
    <path class="fil0" d="M1694 4644c5,-17 21,-22 38,-17 -3,11 -10,27 -20,34 -12,-5 -12,-5 -18,-17zm5 -46c-25,17 -87,24 -18,80 26,21 19,22 56,13 15,-15 11,-25 22,-39 13,-17 22,-17 18,-43l-32 -18c-7,-43 -6,-73 -61,-59l-14 36 29 29z"/>
    <path class="fil0" d="M1340 7480c24,-10 27,9 50,-22 12,-16 30,-24 45,-6 -3,4 -32,23 -41,29 -17,13 -7,4 -24,7 -7,1 -37,20 -31,-8zm134 -15c14,-43 -59,-59 -85,-49 -18,7 -22,21 -43,29 -18,6 -37,7 -41,32 -3,21 8,42 28,49 5,2 54,2 58,1 20,-6 20,-25 37,-34 21,-11 37,4 47,-27z"/>
    <path class="fil0" d="M1850 4897c17,-5 18,0 37,-8 13,-5 20,-9 31,-1 -5,12 -9,8 -21,16l0 26 -30 14c-16,-13 -23,-27 -18,-47zm87 25c11,-14 25,-20 14,-43 -10,-21 -22,-20 -42,-22 -27,-4 -74,7 -93,29 -8,46 13,73 51,95l38 -14c17,7 11,11 30,12 33,-20 10,-40 2,-56z"/>
    <path class="fil0" d="M3203 9940c-25,-8 -40,-9 -64,3 -29,14 -15,31 -13,53 -76,4 -30,-1 -73,25 -42,25 1,57 50,35 40,-19 24,-5 46,-40 19,-1 17,6 40,-1 17,-20 25,-49 13,-74z"/>
    <path class="fil0" d="M2753 10091c7,-10 13,-19 26,-15 -4,10 -2,3 -8,7 -6,4 -5,7 -10,14l-7 -7zm-30 43c41,11 87,21 98,-26 4,-18 9,-15 18,-31 -9,-48 -56,-55 -98,-46 -12,13 -7,11 -10,27 -4,21 -43,40 -8,76z"/>
    <path class="fil0" d="M1921 4556c8,4 6,25 0,33l0 -33zm-55 31c11,-5 15,-4 25,4 -12,11 -16,8 -25,-4zm77 -57c-2,-2 -21,-16 -26,-20 -12,-11 -22,-11 -36,-4 -7,21 2,20 -1,40 -19,3 -37,-6 -47,18 -26,66 107,78 124,41 3,-17 -3,-61 -14,-75z"/>
    <path class="fil0" d="M2805 7867c-23,-27 13,-70 45,-42 -12,5 -22,2 -32,15 -8,10 -5,22 -13,27zm49 -3c32,-3 73,-9 41,-52 -14,-18 -65,-28 -88,-25 -58,8 -61,133 17,120 24,-16 16,-25 29,-43z"/>
    <path class="fil0" d="M5708 1655c-12,3 -20,1 -30,-7 4,-25 29,-7 30,7zm-15 42c26,2 41,8 57,-14 7,-44 -37,-88 -79,-83 -19,17 -53,60 -48,87 3,12 17,34 30,37 23,5 28,-14 41,-26z"/>
    <path class="fil0" d="M1456 6473c6,4 49,9 57,8 20,-2 28,-19 41,-26 15,-7 36,-3 53,-15 13,-10 24,-33 14,-49 -12,-19 -106,7 -108,8 -21,12 -20,20 -35,33 -16,13 -32,17 -22,41z"/>
    <path class="fil0" d="M2168 4818l7 4 -7 -4zm-32 -17c-16,1 -32,-19 -31,-35l11 -4c7,5 19,30 20,38zm-25 23c23,16 23,3 44,28 17,21 27,12 42,-2 16,-16 18,-26 3,-46 -16,-21 -32,-6 -41,-31 -15,-43 -46,-51 -89,-38 -21,32 16,71 41,89z"/>
    <path class="fil0" d="M3688 5966c-14,-11 -8,-29 1,-41 12,-1 19,2 25,13 -3,12 -14,25 -26,28zm65 -23c31,-37 -39,-45 -39,-45 0,0 -48,-40 -63,3 -10,27 -21,16 -23,37 -2,16 12,28 20,41 12,21 13,21 38,21 55,0 36,-20 67,-57z"/>
    <path class="fil0" d="M2981 2151c-6,-8 -11,-23 -9,-31l16 9 -6 22zm-50 -50c-1,-11 4,-14 15,-18 9,6 11,8 9,19l-24 -1zm-33 10c0,25 22,21 39,25 13,14 22,50 39,56 27,8 41,-31 41,-51 0,-31 -15,-41 -31,-65 -14,-19 -46,-26 -68,-23 -9,15 -19,39 -19,57z"/>
    <path class="fil0" d="M4532 6554c12,0 9,-1 7,10 -9,-2 -7,-1 -7,-10zm45 -38c11,0 10,1 10,11 -12,2 -12,1 -10,-11zm38 -17c-18,-14 -53,-21 -68,2 -17,26 -8,9 -29,21 -5,3 -22,18 -23,23 -7,20 14,52 36,57 37,9 32,-17 52,-35l18 7 17 -13c3,-17 4,-46 -2,-62z"/>
    <path class="fil0" d="M2328 5579c-3,-16 7,-12 18,-31 8,-15 14,-19 32,-14l1 21c-13,16 -31,33 -51,24zm105 38c4,-18 -9,-26 -15,-45 -6,-19 -1,-33 -13,-48 -1,-1 -55,-52 -78,-10 -19,36 -49,36 -28,78 18,36 59,14 84,2 24,11 25,30 51,23z"/>
    <path class="fil0" d="M3950 5717l24 0c8,13 8,32 -1,44 -15,4 -23,0 -34,-11l11 -33zm-51 11c10,22 0,18 23,38 96,80 117,-57 61,-84 -13,-6 -14,0 -27,0 -16,0 -41,-24 -71,-1 -7,26 5,29 14,47z"/>
    <path class="fil0" d="M1496 7628l-4 15c-12,4 -12,6 -23,-1l27 -14zm41 11c7,-27 -9,-72 -44,-66 -23,4 -22,14 -32,28 -12,16 -24,5 -33,24 -7,13 -8,39 0,52 9,14 31,10 45,7 12,-3 13,-7 21,-9 10,-2 10,3 22,-1 17,-6 18,-20 22,-35z"/>
    <path class="fil0" d="M1513 1840c17,14 24,17 43,6 19,-11 12,-24 17,-44 11,-9 19,-11 24,-25 6,-35 -20,-85 -77,-74 -48,43 27,53 28,53l-1 19c-11,11 -77,29 -34,64z"/>
    <path class="fil0" d="M1376 7175c-3,16 2,19 0,31 -2,10 -9,13 -4,27l22 51c36,11 22,-6 42,-18 52,-30 42,-33 26,-60 -7,-12 -5,-17 -8,-30 -26,-21 -50,-26 -78,-1z"/>
    <path class="fil0" d="M887 1444l-2 7 2 -7zm26 2l-18 0c8,-3 3,-9 18,0zm41 -22c-16,-15 -66,-12 -91,-13 -40,37 -20,112 21,109 31,-2 18,-29 44,-39 14,-6 17,-1 23,-19 5,-14 6,-24 2,-38z"/>
    <path class="fil0" d="M1258 5031l15 15c-3,11 -5,15 -14,21 -10,-2 -19,-6 -24,-14l23 -22zm63 30c2,-38 -70,-62 -101,-51 -8,11 -30,44 -30,58 15,25 27,17 46,29 14,9 30,24 47,26 27,-12 17,-28 21,-48l17 -14z"/>
    <path class="fil0" d="M2429 5875c-9,-10 -20,-40 -17,-53 26,-5 35,44 17,53zm-18 30c16,4 36,1 50,-8 6,-4 37,-66 38,-75 1,-17 -7,-28 -25,-29l-12 18c-26,0 -15,-16 -42,-21 -77,-13 -14,111 -9,115z"/>
    <path class="fil0" d="M1518 6313c-21,-15 2,-72 35,-48 5,20 -3,15 -17,24 -17,11 -4,16 -18,24zm47 -3c17,-16 32,-30 20,-58 -12,-27 -25,-28 -52,-23 -47,9 -68,61 -53,105 12,8 42,13 56,13 27,-1 24,-19 28,-37z"/>
    <path class="fil0" d="M3714 5243c-35,8 -62,-30 -26,-52 20,2 32,8 46,23l-19 29zm-79 -15c7,23 58,42 78,44 26,2 21,-11 40,-23 18,-11 18,-24 10,-44 -3,-8 -22,-25 -30,-31 -11,-9 -36,-8 -50,-10 -15,-2 -33,-6 -39,13 -2,5 -10,46 -9,51z"/>
    <path class="fil0" d="M2615 9811c10,-5 6,-6 16,0 -9,5 -6,4 -16,0zm47 37c16,-19 7,-21 13,-40 4,-14 21,-21 10,-41 -7,-14 -69,-10 -81,-4 -31,16 -55,120 58,85z"/>
    <path class="fil0" d="M71 5460c9,-12 11,-7 19,-14 10,-9 4,-12 12,-23 76,-1 -5,93 -31,37zm-34 -15c5,15 -4,23 14,37 6,5 23,19 28,21 31,11 51,1 73,-19 43,-40 -42,-100 -80,-95 -14,15 -8,20 -12,38 -12,8 -14,6 -23,19z"/>
    <path class="fil0" d="M1372 6432c74,15 82,-103 40,-123 -25,-12 -65,14 -54,43 14,36 6,11 2,41 -2,18 0,28 13,39z"/>
    <path class="fil0" d="M631 2836c11,38 19,12 42,33 0,0 1,61 47,44 24,-9 23,-49 17,-69 -5,-18 -71,-88 -106,-8z"/>
    <path class="fil0" d="M3085 278l4 -26 27 -18c8,-44 -71,-79 -100,-36 -14,21 -11,46 9,60 20,14 34,39 60,21z"/>
    <path class="fil0" d="M1741 2547c-15,-7 -13,-22 -9,-35 25,-4 17,23 9,35zm-56 -41c0,26 17,50 35,67 30,27 39,22 59,-9 29,-44 -29,-87 -54,-88 -43,-1 -41,3 -41,31z"/>
    <path class="fil0" d="M1642 2728c6,-21 -47,-126 -105,-67 -8,8 -23,16 -25,28 -2,13 4,29 15,36 34,23 51,-12 70,-19 19,10 20,27 44,22z"/>
    <path class="fil0" d="M2859 5988c-10,71 52,57 53,57 21,12 17,23 49,15 7,-8 16,-32 15,-43 -2,-20 -82,-66 -117,-29z"/>
    <path class="fil0" d="M144 5140c3,12 2,18 -11,26l-7 -17 17 -9zm-16 78c32,-3 29,-19 40,-43 44,-99 -33,-71 -42,-65 -15,11 -25,9 -34,27 -16,32 10,64 35,81z"/>
    <path class="fil0" d="M5172 640c-17,23 -4,38 -7,61 -3,24 -15,42 2,63 22,4 26,-10 37,-26 8,-12 25,-25 32,-40 19,-40 -21,-75 -65,-57z"/>
    <path class="fil0" d="M2382 4796c7,-12 10,-13 25,-16l15 17 -6 17c-17,6 -29,0 -33,-18zm-31 -51c-6,15 2,61 13,77 13,19 43,31 65,24 43,-15 21,-99 -35,-107l-19 14c-16,-5 -8,-10 -24,-7z"/>
    <path class="fil0" d="M4196 2775c-7,10 -10,8 -15,0 5,-6 7,-13 15,0zm-15 45c52,5 85,-55 78,-78 -13,-46 -108,11 -108,11 -2,19 15,55 30,67z"/>
    <path class="fil0" d="M2446 2118c11,-2 19,-5 20,8l-20 -8zm14 44c22,0 31,8 52,-8 10,-37 -42,-75 -78,-66 -31,7 -48,71 -1,91 18,-2 16,-5 27,-17z"/>
    <path class="fil0" d="M5556 7821c-32,19 3,45 8,57l-19 13 1 34c15,15 40,32 60,18 17,-39 -6,-47 -15,-68 11,-12 16,-10 23,-27 -6,-26 -32,-42 -57,-26z"/>
    <path class="fil0" d="M2008 4640c7,-8 4,-12 17,-3 -5,11 -10,13 -17,3zm-34 19c20,5 32,34 63,15 19,-12 29,-28 28,-50 -18,-23 -70,-22 -93,-7l-5 32c-19,4 -37,-2 -36,26 1,20 8,30 29,25 5,-15 2,-29 14,-40z"/>
    <path class="fil0" d="M3563 1560l-10 -13 -47 1c-12,10 -21,40 -11,55 16,25 98,42 103,0 4,-30 -7,-39 -34,-43z"/>
    <path class="fil0" d="M1848 2662c-19,-11 -10,-12 -10,-16l23 1c-1,10 -3,11 -13,15zm-48 -8c14,52 110,63 98,-6 -12,-68 -112,-46 -98,6z"/>
    <path class="fil0" d="M1407 3423c-10,-1 -22,-7 -28,-15 15,-18 27,-1 28,15zm-87 -4c15,14 8,16 32,17 19,1 19,-2 37,7 21,11 58,21 56,-15 -26,-26 -8,-15 -22,-38 -7,-12 -17,-22 -31,-26 -22,-5 -27,6 -38,18 -17,20 -34,4 -34,37z"/>
    <path class="fil0" d="M539 2874c25,-51 -101,-60 -87,9 5,24 25,49 51,47 29,-2 24,-30 37,-56z"/>
    <path class="fil0" d="M1805 4797c1,-21 34,-22 46,-16 -3,8 -37,22 -46,16zm89 -26c-25,-34 -135,-26 -120,38 7,30 52,24 72,13 25,-15 46,-15 48,-51z"/>
    <path class="fil0" d="M5090 5749c24,-22 46,1 36,19 -10,16 -39,11 -36,-19zm65 22c10,-26 -9,-60 -36,-62 -67,-5 -92,68 -23,97 21,9 52,-17 59,-35z"/>
    <path class="fil0" d="M1825 4679c-5,22 -26,56 25,47 22,-4 55,-16 54,-44 -2,-36 -64,-67 -85,-38 -9,13 2,23 7,34z"/>
    <path class="fil0" d="M1718 1777c-13,-3 -24,-9 -23,-23 21,-16 34,6 23,23zm-32 -62c-23,20 -35,35 -15,62 13,18 36,43 62,35 47,-15 21,-108 -47,-97z"/>
    <path class="fil0" d="M4965 246c-44,16 3,124 45,94 43,-31 6,-113 -45,-94z"/>
    <path class="fil0" d="M1487 6880c-13,52 79,97 98,61 23,-45 -61,-89 -98,-61z"/>
    <path class="fil0" d="M1733 2679c-10,-6 -8,-12 1,-19 5,10 5,11 -1,19zm-28 -62c-31,25 -17,117 51,93 44,-16 1,-97 -51,-93z"/>
    <path class="fil0" d="M2847 10067c-6,105 92,63 95,19 -4,-7 -33,-37 -41,-38 -15,-2 -44,8 -54,19z"/>
    <path class="fil0" d="M3205 538c-16,28 5,58 28,75 16,2 27,-2 38,0 16,4 18,10 32,-4 4,-7 -4,-79 -67,-60l-15 -14 -16 2z"/>
    <path class="fil0" d="M1986 4816c-12,-2 -18,-21 -6,-31 11,8 9,18 6,31zm-37 -60c-15,43 1,105 56,95 33,-38 11,-125 -56,-95z"/>
    <path class="fil0" d="M2649 9950c-18,-18 -9,0 -23,-26 -13,-24 -80,-4 -75,39 7,59 103,25 98,-12z"/>
    <path class="fil0" d="M3817 5809c-5,-8 -6,-7 3,-15l7 10 -10 5zm-38 -9c0,0 12,34 13,36 18,41 79,-6 85,-20 13,-31 -33,-34 -47,-41 -15,-7 -17,-13 -33,-2 -9,6 -19,15 -17,27z"/>
    <path class="fil0" d="M1041 6794c0,52 72,53 99,21 0,-54 -99,-71 -99,-21z"/>
    <path class="fil0" d="M4802 1176c72,-3 65,-80 25,-86 -36,-6 -84,53 -25,86z"/>
    <path class="fil0" d="M3400 406c-33,18 -11,112 43,77 50,-32 -4,-99 -43,-77z"/>
    <path class="fil0" d="M4925 1219c20,-19 40,-97 -17,-101 -53,30 -34,111 17,101z"/>
    <path class="fil0" d="M1093 1463l-2 53c24,29 77,31 80,-10 3,-33 -46,-69 -78,-42z"/>
    <path class="fil0" d="M4266 6496c0,-11 1,-11 13,-12 0,12 -2,14 -13,12zm51 -30c-29,-29 -117,8 -83,53 36,48 93,-14 83,-53z"/>
    <path class="fil0" d="M1223 6396c10,21 14,38 45,38 29,0 38,-16 41,-41 8,-64 -70,-37 -86,4z"/>
    <path class="fil0" d="M2619 5855c-14,-3 -18,-17 -6,-26 14,6 14,15 6,26zm-30 -56c-26,30 -13,41 14,90l32 -2c44,-41 3,-99 -46,-89z"/>
    <path class="fil0" d="M959 5681c6,10 6,11 -6,16l-6 -11 12 -5zm-31 -27c-50,43 23,88 52,72 23,-13 28,-32 9,-52 -21,-23 -30,-23 -62,-20z"/>
    <path class="fil0" d="M6219 7605c15,-10 11,-17 32,-32 18,-12 21,-25 15,-45 -63,-42 -121,77 -47,77z"/>
    <path class="fil0" d="M3368 1786c4,11 5,7 -3,18l-10 -8 13 -10zm-44 7c0,59 85,56 76,10 -12,-59 -76,-68 -76,-10z"/>
    <path class="fil0" d="M3911 6127c-26,-40 -100,-7 -81,34 16,35 82,26 81,-34z"/>
    <path class="fil0" d="M4053 5579l2 7c-5,-4 -7,0 -2,-7zm-39 -28c-5,33 29,84 69,72 28,-42 -33,-112 -69,-72z"/>
    <path class="fil0" d="M1975 1268c1,11 3,7 -7,16l-9 -10c9,-10 3,-9 16,-6zm16 46c33,-39 -2,-99 -42,-77 -37,20 -17,90 42,77z"/>
    <path class="fil0" d="M2592 5150c-13,4 -17,5 -26,-8l13 -8c12,4 13,3 13,15zm-59 -6c12,29 69,58 90,25 24,-38 -40,-62 -73,-54 -10,10 -15,16 -17,30z"/>
    <path class="fil0" d="M1467 3367c10,45 84,50 76,-2 -9,-56 -86,-48 -76,2z"/>
    <path class="fil0" d="M2690 10048c-43,-43 -75,9 -75,11 -7,27 8,27 25,34 0,0 66,53 50,-45z"/>
    <path class="fil0" d="M1646 1824c9,-9 6,-9 15,-3 -5,8 -5,10 -15,3zm-35 4c11,15 27,33 47,33 21,0 36,-20 37,-40 -25,-46 -79,-52 -84,7z"/>
    <path class="fil0" d="M3809 5186c0,31 59,72 72,20 7,-29 -35,-75 -71,-49l-1 20 0 8z"/>
    <path class="fil0" d="M71 5344c-10,-12 -8,-23 6,-30 13,11 11,29 -6,30zm-3 34c49,8 64,-66 14,-85 -65,-24 -41,58 -14,85z"/>
    <path class="fil0" d="M5914 7948c14,-14 17,-29 11,-48 -38,-27 -104,18 -79,55 20,6 47,-2 67,-7z"/>
    <path class="fil0" d="M2569 4963c21,-61 -70,-42 -73,-11 -6,50 56,63 73,11z"/>
    <path class="fil0" d="M1348 1719c5,-5 -2,2 0,0zm-36 6c5,32 76,58 74,-11 -2,-57 -80,-27 -74,11z"/>
    <path class="fil0" d="M3339 5834c6,15 6,22 -9,29 -11,-4 -13,-8 -15,-19 8,-14 10,-15 24,-10zm-54 -6c-5,51 61,86 81,39 7,-18 -13,-81 -54,-50 -15,11 -13,3 -27,12z"/>
    <path class="fil0" d="M3562 5154c17,8 19,27 0,32 -11,-6 -10,-7 -11,-21l12 -10zm-42 25c0,48 98,32 78,-20 -23,-58 -78,-22 -78,20z"/>
    <path class="fil0" d="M4754 1295c-33,16 -12,99 33,71 50,-33 2,-87 -33,-71z"/>
    <path class="fil0" d="M4391 6542c0,27 25,72 56,72 12,-11 22,-36 22,-53 -12,-21 -58,-34 -78,-18z"/>
    <path class="fil0" d="M3890 5314c-33,70 88,80 79,14 -17,-19 -57,-20 -79,-14z"/>
    <path class="fil0" d="M1349 6263c7,39 89,36 85,-7 -4,-44 -92,-35 -85,7z"/>
    <path class="fil0" d="M4004 5443c6,-61 -52,-69 -72,-30 -19,38 38,68 72,30z"/>
    <path class="fil0" d="M315 1697c1,-18 -1,-41 -20,-48 -18,-7 -45,-11 -53,11 -15,42 42,74 73,38z"/>
    <path class="fil0" d="M4064 2984c0,30 31,44 57,36 13,-17 10,-48 3,-67 -31,-16 -59,-7 -59,31z"/>
    <path class="fil0" d="M5070 1324c31,-17 40,-47 17,-75 -78,-21 -66,69 -17,75z"/>
    <path class="fil0" d="M4843 1218c-38,26 -19,94 26,71 42,-22 23,-73 -26,-71z"/>
    <path class="fil0" d="M2788 5907c0,-1 3,-2 4,1 1,4 -4,0 -4,-1zm-14 33c64,9 52,-53 22,-68 -45,-22 -62,35 -22,68z"/>
    <path class="fil0" d="M5091 730c28,25 81,-14 50,-53 -13,-16 -31,-22 -47,-5 -13,15 -7,41 -3,58z"/>
    <path class="fil0" d="M3174 5898c13,3 14,10 8,19 -13,-5 -12,-7 -8,-19zm-38 16c20,19 38,36 66,28 33,-35 -15,-94 -65,-53l-1 25z"/>
    <path class="fil0" d="M2705 265c-28,15 -21,91 27,73 38,-14 10,-92 -27,-73z"/>
    <path class="fil0" d="M1297 6225c19,-40 -53,-67 -65,-25 -15,52 47,61 65,25z"/>
    <path class="fil0" d="M851 5626c27,23 52,39 83,11 3,-44 -49,-51 -83,-36l0 25z"/>
    <path class="fil0" d="M3035 1971c7,47 66,41 67,-4 1,-44 -74,-42 -67,4z"/>
    <path class="fil0" d="M1386 6532c17,-46 -57,-53 -63,-10 -5,42 44,62 63,10z"/>
    <path class="fil0" d="M3988 6322c-21,-20 -95,-5 -70,32 21,31 81,16 70,-32z"/>
    <path class="fil0" d="M3780 5343c18,20 18,17 48,24 21,4 39,-6 39,-28 -21,-33 -69,-25 -87,4z"/>
    <path class="fil0" d="M3914 5292c12,-64 -69,-51 -67,-4 17,19 49,29 67,4z"/>
    <path class="fil0" d="M5693 7886c-35,-10 -68,28 -36,55 25,21 68,-17 36,-55z"/>
    <path class="fil0" d="M1439 3212c-49,18 -10,77 33,55 8,-29 -3,-50 -33,-55z"/>
    <path class="fil0" d="M1756 1736c11,17 16,32 42,35 59,-33 -30,-95 -42,-35z"/>
    <path class="fil0" d="M3026 5973c-55,-10 -50,41 -25,51 33,13 53,-26 25,-51z"/>
    <path class="fil0" d="M5723 7976c23,33 72,13 54,-34 -25,-7 -56,5 -54,34z"/>
    <path class="fil0" d="M2586 5032c29,7 48,-2 45,-34 -12,-9 -37,-21 -51,-16 -6,16 -6,37 6,50z"/>
    <path class="fil0" d="M5645 7959c-23,21 -6,46 17,46 23,0 39,-25 21,-47l-38 1z"/>
    <path class="fil0" d="M2208 4698c-4,23 4,44 30,43 26,-15 16,-44 -8,-56l-21 12z"/>
    <path class="fil0" d="M74 5274c28,4 40,-20 31,-44l-22 -6 -22 24c2,14 2,17 12,26z"/>
    <path class="fil0" d="M165 1767c16,45 62,30 49,-7 -12,-8 -19,-9 -34,-9l-15 17z"/>
    <path class="fil0" d="M3525 5909c-23,-23 -52,9 -37,33 16,5 22,4 37,-4l-1 -29z"/>
    <path class="fil0" d="M986 5755c0,28 25,25 32,19 10,-19 -6,-43 -25,-45 -8,11 -6,12 -6,26z"/>
    <path class="fil0" d="M123 1909c18,-3 29,-11 25,-30 -12,-14 -28,-10 -40,2 -5,17 -1,22 15,28z"/>
    <path class="fil0" d="M3483 1642c-1,24 16,32 36,22 8,-17 -3,-27 -19,-33l-17 10z"/>
    <polygon class="fil0" points="372,0 365,0 369,5 "/>
   </g>
  </g>
 </g>
</svg>
